<svg width="40" height="40" viewBox="0 0 40 40" fill="none" xmlns="http://www.w3.org/2000/svg">
<path fill-rule="evenodd" clip-rule="evenodd" d="M5.38345 31.8502C5.47158 31.6684 5.59004 31.5009 5.73567 31.3553L7.69116 29.3999C7.06085 29.0223 6.37808 28.74 5.66513 28.5624C5.19445 28.4456 4.78927 28.1466 4.53901 27.7312C4.28874 27.3158 4.21364 26.8179 4.33037 26.3472C4.4471 25.8764 4.74607 25.4713 5.16161 25.221C5.577 24.9707 6.07486 24.8957 6.54555 25.0124C7.90639 25.3507 9.19073 25.9438 10.3307 26.7603L16.3085 20.7824L8.14017 18.5961C7.56061 19.8722 6.74476 21.027 5.73567 21.9997C5.39067 22.3321 4.92894 22.5158 4.44977 22.5113C3.9706 22.5068 3.51248 22.3144 3.17376 21.9756L3.14957 21.9515C2.81352 21.6024 2.62971 21.1343 2.63866 20.6499C2.64746 20.1655 2.84808 19.7043 3.1967 19.3678C3.72504 18.8574 4.17531 18.2718 4.53256 17.6298L1.38057 16.7852C1.14554 16.7258 0.924806 16.6204 0.730938 16.4749C0.537228 16.3295 0.374152 16.147 0.251611 15.938C0.128912 15.729 0.0489451 15.4977 0.0164244 15.2576C-0.0159392 15.0174 -0.00038582 14.7732 0.0622991 14.5392C0.124984 14.3051 0.233544 14.0858 0.381694 13.8941C0.530001 13.7024 0.714756 13.542 0.925434 13.4223C1.13611 13.3026 1.36847 13.226 1.60915 13.197C1.84968 13.1679 2.09367 13.1869 2.32681 13.2529L5.48588 14.0928C5.4964 13.3587 5.39868 12.6271 5.19555 11.9217C5.12674 11.6902 5.10443 11.4475 5.12988 11.2074C5.15533 10.9673 5.22807 10.7346 5.34401 10.5227C5.4598 10.3109 5.61659 10.1241 5.80496 9.97317C5.99348 9.82221 6.20997 9.71006 6.44186 9.6432C6.67391 9.57634 6.91695 9.5561 7.15669 9.58362C7.39659 9.61115 7.62863 9.68591 7.83947 9.8036C8.0503 9.92128 8.23584 10.0796 8.38509 10.2693C8.5345 10.459 8.64479 10.6764 8.70967 10.909C9.09709 12.2568 9.22561 13.6657 9.08877 15.0614L17.2554 17.2495L15.0655 9.08231C13.6698 9.21922 12.2609 9.09059 10.9131 8.70321C10.6806 8.63834 10.4631 8.52804 10.2733 8.3787C10.0836 8.22935 9.92535 8.04392 9.80768 7.83309C9.69001 7.62225 9.61522 7.3902 9.58773 7.15032C9.56024 6.91045 9.58035 6.66749 9.64727 6.43548C9.7142 6.20347 9.82622 5.987 9.97719 5.79855C10.1282 5.61011 10.315 5.45343 10.5267 5.33755C10.7387 5.22168 10.9714 5.1489 11.2114 5.12342C11.4516 5.09795 11.6944 5.12028 11.9258 5.18912C12.6312 5.39221 13.3628 5.49004 14.0968 5.47946L13.2528 2.32682C13.1869 2.09367 13.1678 1.84971 13.1969 1.60915C13.226 1.36857 13.3026 1.13618 13.4224 0.925475C13.5419 0.714777 13.7023 0.529963 13.8941 0.381774C14.0858 0.233584 14.3051 0.124986 14.5392 0.0622811C14.7731 -0.000423461 15.0174 -0.0159769 15.2575 0.0165144C15.4977 0.0490155 15.729 0.128913 15.9379 0.251573C16.1469 0.374233 16.3294 0.5372 16.4749 0.731018C16.6204 0.924827 16.7258 1.14562 16.7852 1.38056L17.6328 4.52967C18.2755 4.17163 18.8618 3.72045 19.3724 3.1908C19.5391 3.01779 19.7381 2.87931 19.9582 2.78325C20.1783 2.6872 20.4153 2.63545 20.6555 2.63098C20.8957 2.6265 21.1343 2.66938 21.3579 2.75717C21.5814 2.84495 21.7855 2.97592 21.9585 3.1426L21.9838 3.16787C22.3227 3.50661 22.515 3.96482 22.5195 4.44393C22.5241 4.92304 22.3403 5.38478 22.0078 5.72983C21.0346 6.73915 19.8789 7.555 18.6019 8.13428L20.7882 16.3027L26.7662 10.3248C25.9496 9.18488 25.3565 7.90052 25.0183 6.53974C24.9015 6.06898 24.9765 5.57114 25.2269 5.1557C25.4772 4.74028 25.8822 4.4413 26.353 4.32455C26.8237 4.20779 27.3216 4.28283 27.737 4.53315C28.1525 4.78346 28.4515 5.18855 28.5682 5.6593C28.7459 6.37225 29.0281 7.05497 29.4057 7.68524L31.3611 5.72983C31.5067 5.58429 31.6742 5.4658 31.856 5.37763L34.1475 3.08613C34.87 2.36363 36.0414 2.36363 36.7639 3.08613C37.4864 3.80863 37.4864 4.98003 36.7639 5.70253L32.1568 10.3096C32.1557 10.3107 32.1546 10.3118 32.1535 10.3129L28.849 13.6175C30.1144 15.4392 30.806 17.6166 30.806 19.8652C30.806 22.7656 29.6554 25.5476 27.6066 27.6006C26.0765 29.1305 24.1273 30.1724 22.0053 30.5945C19.8833 31.0166 17.6837 30.8 15.6847 29.972C14.9549 29.6697 14.264 29.2909 13.6222 28.8443L8.49554 33.9709C8.49381 33.9726 8.49208 33.9743 8.49035 33.9761L5.7085 36.7579C4.98597 37.4804 3.81459 37.4804 3.09207 36.7579C2.36954 36.0355 2.36954 34.8641 3.09207 34.1416L5.38345 31.8502ZM16.422 26.0444C17.4673 26.6268 18.6532 26.9404 19.871 26.9404C21.7478 26.9404 23.5479 26.1959 24.8764 24.8704C25.8663 23.8805 26.5405 22.6192 26.8137 21.2461C27.0867 19.873 26.9466 18.4498 26.4108 17.1563C26.3053 16.9015 26.1852 16.6539 26.0517 16.4147L16.422 26.0444Z" fill="#E21F26"/>
<path d="M34.6031 21.6493C34.3688 21.5521 34.156 21.4097 33.9769 21.2302C33.7049 20.9606 33.5194 20.6161 33.4438 20.2406C33.3682 19.8652 33.4059 19.4757 33.5522 19.1218C33.6986 18.7679 33.947 18.4655 34.2656 18.2531C34.5842 18.0407 34.9589 17.9279 35.342 17.929H38.0721C38.326 17.929 38.5775 17.9791 38.8121 18.0762C39.0468 18.1734 39.26 18.3159 39.4396 18.4954C39.6191 18.675 39.7616 18.8882 39.8587 19.1228C39.956 19.3575 40.0059 19.6089 40.0059 19.8629C40.0059 20.1169 39.956 20.3683 39.8587 20.6029C39.7616 20.8376 39.6191 21.0508 39.4396 21.2303C39.26 21.4099 39.0468 21.5523 38.8121 21.6495C38.5775 21.7467 38.326 21.7967 38.0721 21.7967H35.342C35.0884 21.7966 34.8373 21.7465 34.6031 21.6493Z" fill="#E21F26"/>
<path d="M21.2363 33.9686C21.5989 34.3312 21.8026 34.8231 21.8026 35.336V38.0661C21.8026 38.579 21.5989 39.0709 21.2363 39.4336C20.8735 39.7963 20.3818 40 19.8688 40C19.3559 40 18.864 39.7963 18.5014 39.4336C18.1386 39.0709 17.935 38.579 17.935 38.0661V35.336C17.935 34.8231 18.1386 34.3312 18.5014 33.9686C18.864 33.6059 19.3559 33.4021 19.8688 33.4021C20.3818 33.4021 20.8735 33.6059 21.2363 33.9686Z" fill="#E21F26"/>
<path d="M32.1568 29.4207L33.9769 31.2408C34.3388 31.6028 34.5423 32.0938 34.5423 32.6059C34.5423 33.1179 34.3388 33.6089 33.9769 33.9709C33.6149 34.333 33.1238 34.5364 32.6118 34.5364C32.0998 34.5364 31.6088 34.333 31.2467 33.9709L29.4266 32.1508C29.0645 31.7888 28.8612 31.2978 28.8612 30.7858C28.8612 30.2737 29.0645 29.7827 29.4266 29.4207C29.7886 29.0586 30.2797 28.8552 30.7917 28.8552C31.3037 28.8552 31.7947 29.0586 32.1568 29.4207Z" fill="#E21F26"/>
</svg>
