<svg width="32" height="40" viewBox="0 0 32 40" fill="none" xmlns="http://www.w3.org/2000/svg">
<path d="M15.7143 8.27593C14.2279 8.27593 12.7748 8.72086 11.5389 9.55445C10.303 10.388 9.33968 11.5728 8.77084 12.9591C8.20201 14.3453 8.05318 15.8706 8.34317 17.3422C8.63315 18.8138 9.34894 20.1655 10.4 21.2265C11.4511 22.2875 12.7902 23.01 14.2481 23.3027C15.7059 23.5954 17.2171 23.4452 18.5904 22.871C19.9636 22.2968 21.1374 21.3245 21.9632 20.0769C22.789 18.8293 23.2298 17.3626 23.2298 15.8622C23.2276 13.8509 22.435 11.9226 21.0261 10.5004C19.6171 9.07821 17.7068 8.27821 15.7143 8.27593ZM15.7143 19.3105C15.0386 19.3105 14.3782 19.1083 13.8164 18.7294C13.2546 18.3505 12.8167 17.8119 12.5582 17.1818C12.2996 16.5517 12.232 15.8584 12.3638 15.1895C12.4956 14.5206 12.8209 13.9061 13.2987 13.4239C13.7765 12.9416 14.3852 12.6132 15.0478 12.4802C15.7105 12.3471 16.3974 12.4154 17.0216 12.6764C17.6458 12.9374 18.1793 13.3794 18.5547 13.9464C18.9301 14.5135 19.1304 15.1802 19.1304 15.8622C19.1304 16.7767 18.7705 17.6538 18.1299 18.3005C17.4892 18.9472 16.6203 19.3105 15.7143 19.3105ZM15.7143 0C11.548 0.00456378 7.55362 1.67722 4.6076 4.65097C1.66158 7.62472 0.00452122 11.6567 0 15.8622C0 29.2002 13.9447 39.2072 14.5391 39.6262C14.8836 39.8695 15.2939 40 15.7143 40C16.1347 40 16.545 39.8695 16.8894 39.6262C19.5306 37.6614 21.947 35.4061 24.0941 32.902C28.8921 27.3399 31.4286 21.4433 31.4286 15.8622C31.424 11.6567 29.767 7.62472 26.821 4.65097C23.8749 1.67722 19.8806 0.00456378 15.7143 0ZM21.0606 30.1227C19.432 32.011 17.6431 33.7521 15.7143 35.3261C13.7855 33.7521 11.9966 32.011 10.368 30.1227C7.51553 26.7881 4.09938 21.6053 4.09938 15.8622C4.09938 12.7527 5.32309 9.77063 7.50131 7.57191C9.67952 5.37319 12.6338 4.13796 15.7143 4.13796C18.7948 4.13796 21.749 5.37319 23.9273 7.57191C26.1055 9.77063 27.3292 12.7527 27.3292 15.8622C27.3292 21.6053 23.913 26.7881 21.0606 30.1227Z" fill="#E21F26"/>
</svg>
