<svg width="260" height="216" viewBox="0 0 260 216" fill="none" xmlns="http://www.w3.org/2000/svg">
<g opacity="0.5">
<path d="M171.774 178.09H133.969V215.896H171.774V178.09Z" fill="#F8B916"/>
<path d="M127.108 178.09H89.3027V215.896H127.108V178.09Z" fill="#F8B916"/>
<path d="M82.4756 178.09H44.6699V215.896H82.4756V178.09Z" fill="#F8B916"/>
<path d="M215.941 89.7642H178.136V127.57H215.941V89.7642Z" fill="#A42381"/>
<path d="M215.941 133.926H178.136V171.732H215.941V133.926Z" fill="#A42381"/>
<path d="M215.941 178.09H178.136V215.896H215.941V178.09Z" fill="#A42381"/>
<path d="M171.742 133.926H133.937V171.732H171.742V133.926Z" fill="#A42381"/>
<path d="M259.664 45.1001H221.858V82.9058H259.664V45.1001Z" fill="#179547"/>
<path d="M259.664 178.09H221.858V215.896H259.664V178.09Z" fill="#179547"/>
<path d="M259.664 89.7642H221.858V127.57H259.664V89.7642Z" fill="#179547"/>
<path d="M259.664 133.928H221.858V171.734H259.664V133.928Z" fill="#179547"/>
<path d="M171.774 0.461426H133.969V38.2671H171.774V0.461426Z" fill="#E21F26"/>
<path d="M127.108 0.461426H89.3027V38.2671H127.108V0.461426Z" fill="#E21F26"/>
<path d="M127.108 45.1001H89.3027V82.9058H127.108V45.1001Z" fill="#E21F26"/>
<path d="M82.4756 45.1001H44.6699V82.9058H82.4756V45.1001Z" fill="#E21F26"/>
<path d="M37.8057 133.928H0V171.734H37.8057V133.928Z" fill="#00519A"/>
<path d="M37.8057 178.09H0V215.896H37.8057V178.09Z" fill="#00519A"/>
</g>
</svg>
