<svg width="158" height="125" viewBox="0 0 158 125" fill="none" xmlns="http://www.w3.org/2000/svg">
<g opacity="0.5">
<path d="M64.8429 27.5291L92.5514 27.5291L92.5514 -0.179392L64.8429 -0.179394L64.8429 27.5291Z" fill="#179547"/>
<path d="M97.5788 27.5291L125.287 27.5291L125.287 -0.179392L97.5788 -0.179394L97.5788 27.5291Z" fill="#179547"/>
<path d="M130.292 27.5291L158 27.5291L158 -0.179392L130.292 -0.179394L130.292 27.5291Z" fill="#179547"/>
<path d="M32.4721 92.2642L60.1805 92.2642L60.1805 64.5557L32.4721 64.5557L32.4721 92.2642Z" fill="#E21F26"/>
<path d="M32.4721 59.8966L60.1805 59.8966L60.1805 32.1882L32.4721 32.1882L32.4721 59.8966Z" fill="#E21F26"/>
<path d="M32.4721 27.5291L60.1805 27.5291L60.1805 -0.179392L32.4721 -0.179394L32.4721 27.5291Z" fill="#E21F26"/>
<path d="M64.866 59.8966L92.5745 59.8966L92.5745 32.1882L64.866 32.1882L64.866 59.8966Z" fill="#E21F26"/>
<path d="M0.426794 125L28.1353 125L28.1353 97.2915L0.426796 97.2915L0.426794 125Z" fill="#00519A"/>
<path d="M0.426794 27.5291L28.1353 27.5291L28.1353 -0.179392L0.426796 -0.179394L0.426794 27.5291Z" fill="#00519A"/>
<path d="M0.426794 92.2642L28.1353 92.2642L28.1353 64.5557L0.426796 64.5557L0.426794 92.2642Z" fill="#00519A"/>
<path d="M0.426794 59.8966L28.1353 59.8966L28.1353 32.1882L0.426796 32.1882L0.426794 59.8966Z" fill="#00519A"/>
</g>
</svg>
