<svg width="158" height="126" viewBox="0 0 158 126" fill="none" xmlns="http://www.w3.org/2000/svg">
<g opacity="0.5">
<path d="M93.8962 98.1871H66.1877V125.896H93.8962V98.1871Z" fill="#F8B916"/>
<path d="M61.1603 98.1871H33.4519V125.896H61.1603V98.1871Z" fill="#F8B916"/>
<path d="M28.4476 98.1871H0.739136V125.896H28.4476V98.1871Z" fill="#F8B916"/>
<path d="M126.267 33.452H98.5586V61.1604H126.267V33.452Z" fill="#A42381"/>
<path d="M126.267 65.8195H98.5586V93.528H126.267V65.8195Z" fill="#A42381"/>
<path d="M126.267 98.1871H98.5586V125.896H126.267V98.1871Z" fill="#A42381"/>
<path d="M93.8732 65.8195H66.1648V93.528H93.8732V65.8195Z" fill="#A42381"/>
<path d="M158.312 0.716125H130.604V28.4246H158.312V0.716125Z" fill="#179547"/>
<path d="M158.312 98.1871H130.604V125.896H158.312V98.1871Z" fill="#179547"/>
<path d="M158.312 33.452H130.604V61.1604H158.312V33.452Z" fill="#179547"/>
<path d="M158.312 65.8195H130.604V93.528H158.312V65.8195Z" fill="#179547"/>
</g>
</svg>
