<svg width="75" height="102" viewBox="0 0 75 102" fill="none" xmlns="http://www.w3.org/2000/svg">
<g opacity="0.5">
<path d="M52.0342 0.00012207L52.0342 22.4492L74.4833 22.4492L74.4833 0.000121089L52.0342 0.00012207Z" fill="#F8B916"/>
<path d="M52.0342 26.5216L52.0342 48.9707L74.4833 48.9707L74.4833 26.5216L52.0342 26.5216Z" fill="#F8B916"/>
<path d="M52.0342 53.0255L52.0342 75.4746L74.4833 75.4746L74.4833 53.0255L52.0342 53.0255Z" fill="#F8B916"/>
<path d="M-9.81281e-07 -0.00012207L0 22.449L22.4491 22.449L22.4491 -0.000123052L-9.81281e-07 -0.00012207Z" fill="#E21F26"/>
<path d="M-9.81281e-07 26.5236L0 48.9727L22.4491 48.9727L22.4491 26.5236L-9.81281e-07 26.5236Z" fill="#E21F26"/>
<path d="M26.5057 26.5236L26.5057 48.9727L48.9548 48.9727L48.9548 26.5236L26.5057 26.5236Z" fill="#E21F26"/>
<path d="M26.5057 53.0255L26.5057 75.4746L48.9548 75.4746L48.9548 53.0255L26.5057 53.0255Z" fill="#E21F26"/>
<path d="M25.8105 79.5509L25.8105 102L48.2596 102L48.2596 79.5509L25.8105 79.5509Z" fill="#00519A"/>
<path d="M52.0342 79.5509L52.0342 102L74.4833 102L74.4833 79.5509L52.0342 79.5509Z" fill="#00519A"/>
</g>
</svg>
