<svg width="102" height="102" viewBox="0 0 102 102" fill="none" xmlns="http://www.w3.org/2000/svg">
<g opacity="0.5">
<path d="M49.0734 79.1346H26.5775V101.631H49.0734V79.1346Z" fill="#F8B916"/>
<path d="M22.4959 79.1346H0V101.631H22.4959V79.1346Z" fill="#F8B916"/>
<path d="M75.3547 26.5775H52.8587V49.0734H75.3547V26.5775Z" fill="#A42381"/>
<path d="M75.3547 52.8561H52.8587V75.352H75.3547V52.8561Z" fill="#A42381"/>
<path d="M75.3547 79.1346H52.8587V101.631H75.3547V79.1346Z" fill="#A42381"/>
<path d="M49.0547 52.8561H26.5588V75.352H49.0547V52.8561Z" fill="#A42381"/>
<path d="M101.372 0H78.8756V22.4959H101.372V0Z" fill="#179547"/>
<path d="M101.372 79.1346H78.8756V101.631H101.372V79.1346Z" fill="#179547"/>
<path d="M101.372 26.5775H78.8756V49.0734H101.372V26.5775Z" fill="#179547"/>
<path d="M101.372 52.8561H78.8756V75.352H101.372V52.8561Z" fill="#179547"/>
</g>
</svg>
