<svg width="62" height="75" viewBox="0 0 62 75" fill="none" xmlns="http://www.w3.org/2000/svg">
<path fill-rule="evenodd" clip-rule="evenodd" d="M22.3256 0H43.1074L62 18.8169V56.4481C62 58.5263 60.3082 60.2113 58.2215 60.2113H43.453V71.2368C43.453 73.315 41.7612 75 39.6744 75H3.77855C1.69182 75 0 73.315 0 71.2368V18.5519C0 16.4737 1.69182 14.7887 3.77855 14.7887H18.547V3.7632C18.547 1.68496 20.2388 0 22.3256 0ZM18.547 18.5519H3.77855V71.2368H39.6744V60.2113H22.3256C20.2388 60.2113 18.547 58.5263 18.547 56.4481V18.5519ZM58.2215 20.6976V20.3759L41.5431 3.7632H41.2181V20.6976H58.2215ZM22.3256 3.7632V56.4481H58.2215V24.4608H37.4396V3.7632H22.3256Z" fill="#393939"/>
</svg>
