<svg width="18" height="20" viewBox="0 0 18 20" fill="none" xmlns="http://www.w3.org/2000/svg">
<path d="M15.5 10.55L9.3 16.75C7.6 18.45 4.9 18.45 3.3 16.75C1.6 15.05 1.6 12.35 3.3 10.75L11.3 2.75C12.3 1.85 13.8 1.85 14.8 2.75C15.8 3.75 15.8 5.35 14.8 6.25L7.9 13.15C7.6 13.45 7.1 13.45 6.8 13.15C6.5 12.85 6.5 12.35 6.8 12.05L11.9 6.95C12.3 6.55 12.3 5.95 11.9 5.55C11.5 5.15 10.9 5.15 10.5 5.55L5.4 10.75C4.3 11.85 4.3 13.55 5.4 14.65C6.5 15.65 8.2 15.65 9.3 14.65L16.2 7.75C18 5.95 18 3.15 16.2 1.35C14.4 -0.45 11.6 -0.45 9.8 1.35L1.8 9.35C0.6 10.55 0 12.15 0 13.75C0 17.25 2.8 19.95 6.3 19.95C8 19.95 9.5 19.25 10.7 18.15L16.9 11.95C17.3 11.55 17.3 10.95 16.9 10.55C16.5 10.15 15.9 10.15 15.5 10.55Z" fill="#E21F26"/>
</svg>
