<svg width="1920" height="544" viewBox="0 0 1920 544" fill="none" xmlns="http://www.w3.org/2000/svg">
<g opacity="0.5">
<path opacity="0.6" d="M1381.11 275.766H1508.78V403.435H1381.11V275.766Z" fill="#F8B916"/>
<path opacity="0.6" d="M139.468 137.969H267.138V265.638H139.468V137.969Z" fill="#A42381"/>
<path opacity="0.6" d="M1519.29 275.766H1646.96V403.435H1519.29V275.766Z" fill="#F8B916"/>
<path opacity="0.8" d="M277.651 137.969H405.32V265.638H277.651V137.969Z" fill="#F8B916"/>
<path opacity="0.6" d="M1519.29 416H1646.96V543.669H1519.29V416Z" fill="#F8B916"/>
<path opacity="0.8" d="M277.651 276.168H405.32V403.837H277.651V276.168Z" fill="#F8B916"/>
<path opacity="0.6" d="M1657.51 416H1785.18V543.669H1657.51V416Z" fill="#F8B916"/>
<path opacity="0.8" d="M681.256 277.422L553.587 277.422L553.587 405.091L681.256 405.091L681.256 277.422Z" fill="#179547"/>
<path opacity="0.8" d="M543.077 277.422L415.407 277.422L415.407 405.091L543.077 405.091L543.077 277.422Z" fill="#179547"/>
<path opacity="0.8" d="M543.078 415.619L415.409 415.619L415.409 543.288L543.078 543.288L543.078 415.619Z" fill="#179547"/>
<path opacity="0.8" d="M404.861 415.617L277.191 415.617L277.191 543.286L404.861 543.286L404.861 415.617Z" fill="#179547"/>
<path opacity="0.8" d="M1792.33 0H1920V127.669H1792.33V0Z" fill="#179547"/>
<path opacity="0.8" d="M1792.33 416H1920V543.669H1792.33V416Z" fill="#179547"/>
<path opacity="0.8" d="M1792.33 138.217H1920V265.886H1792.33V138.217Z" fill="#179547"/>
<path opacity="0.8" d="M1792.33 276.396H1920V404.066H1792.33V276.396Z" fill="#179547"/>
<path opacity="0.8" d="M829.522 415.602H957.191V543.271H829.522V415.602Z" fill="#00519A"/>
<path opacity="0.8" d="M691.323 415.602H818.992V543.271H691.323V415.602Z" fill="#00519A"/>
<path opacity="0.8" d="M691.323 277.422H818.992V405.091H691.323V277.422Z" fill="#00519A"/>
<path opacity="0.8" d="M553.125 415.602H680.794V543.271H553.125V415.602Z" fill="#00519A"/>
<path opacity="0.6" d="M1105.46 277.027H1233.13V404.697H1105.46V277.027Z" fill="#E21F26"/>
<path opacity="0.6" d="M967.258 415.246H1094.93V542.915H967.258V415.246Z" fill="#E21F26"/>
<path opacity="0.6" d="M967.258 277.027H1094.93V404.697H967.258V277.027Z" fill="#E21F26"/>
<path opacity="0.6" d="M1105.46 415.246H1233.13V542.915H1105.46V415.246Z" fill="#E21F26"/>
<path opacity="0.4" d="M1370.86 543.521L1243.2 543.521L1243.2 415.852L1370.86 415.852L1370.86 543.521Z" fill="#00519A"/>
<path opacity="0.4" d="M1509.06 543.521L1381.39 543.521L1381.39 415.852L1509.06 415.852L1509.06 543.521Z" fill="#00519A"/>
<path opacity="0.8" d="M267.422 405.725L139.753 405.725L139.753 278.055L267.422 278.055L267.422 405.725Z" fill="#F8B916"/>
<path opacity="0.4" d="M1370.86 405.305L1243.2 405.305L1243.2 277.635L1370.86 277.635L1370.86 405.305Z" fill="#00519A"/>
<path opacity="0.4" d="M1370.86 267.121L1243.2 267.121L1243.2 139.452L1370.86 139.452L1370.86 267.121Z" fill="#00519A"/>
<path opacity="0.6" d="M127.669 542.035L0 542.035L1.11612e-05 414.366L127.669 414.366L127.669 542.035Z" fill="#A42381"/>
<path opacity="0.8" d="M265.869 542.037L138.2 542.037L138.2 414.368L265.869 414.368L265.869 542.037Z" fill="#F8B916"/>
<path opacity="0.6" d="M127.669 403.82L0 403.82L1.11612e-05 276.151L127.669 276.151L127.669 403.82Z" fill="#A42381"/>
<path opacity="0.6" d="M127.669 265.639L0 265.639L1.11612e-05 137.969L127.669 137.969L127.669 265.639Z" fill="#A42381"/>
</g>
</svg>
