<svg width="1920" height="272" viewBox="0 0 1920 272" fill="none" xmlns="http://www.w3.org/2000/svg">
<g opacity="0.8">
<path opacity="0.6" d="M689.191 137.61H752.899V201.318H689.191V137.61Z" fill="white"/>
<path opacity="0.6" d="M69.5964 68.8481H133.305V132.557H69.5964V68.8481Z" fill="white"/>
<path opacity="0.6" d="M758.146 137.61H821.854V201.318H758.146V137.61Z" fill="white"/>
<path opacity="0.8" d="M138.551 68.8481H202.26V132.557H138.551V68.8481Z" fill="white"/>
<path opacity="0.6" d="M758.146 207.589H821.855V271.297H758.146V207.589Z" fill="white"/>
<path opacity="0.8" d="M138.551 137.812H202.26V201.52H138.551V137.812Z" fill="white"/>
<path opacity="0.6" d="M827.117 207.589H890.826V271.297H827.117V207.589Z" fill="white"/>
<path opacity="0.3" d="M339.955 138.436L276.247 138.436L276.247 202.144L339.955 202.144L339.955 138.436Z" fill="white"/>
<path opacity="0.3" d="M271.002 138.436L207.293 138.436L207.293 202.144L271.002 202.144L271.002 138.436Z" fill="white"/>
<path opacity="0.3" d="M271.003 207.398L207.294 207.398L207.294 271.107L271.003 271.107L271.003 207.398Z" fill="white"/>
<path opacity="0.3" d="M202.031 207.398L138.322 207.398L138.322 271.107L202.031 271.107L202.031 207.398Z" fill="white"/>
<path opacity="0.8" d="M894.395 0H958.104V63.7085H894.395V0Z" fill="white"/>
<path opacity="0.8" d="M894.395 207.589H958.103V271.297H894.395V207.589Z" fill="white"/>
<path opacity="0.8" d="M894.395 68.9722H958.103V132.681H894.395V68.9722Z" fill="white"/>
<path opacity="0.8" d="M894.395 137.926H958.103V201.634H894.395V137.926Z" fill="white"/>
<path opacity="0.8" d="M413.942 207.389H477.65V271.098H413.942V207.389Z" fill="white"/>
<path opacity="0.8" d="M344.979 207.389H408.687V271.098H344.979V207.389Z" fill="white"/>
<path opacity="0.8" d="M344.979 138.436H408.687V202.144H344.979V138.436Z" fill="white"/>
<path opacity="0.8" d="M276.016 207.389H339.724V271.098H276.016V207.389Z" fill="white"/>
<path opacity="0.6" d="M551.637 138.239H615.345V201.948H551.637V138.239Z" fill="white"/>
<path opacity="0.6" d="M482.674 207.213H546.382V270.921H482.674V207.213Z" fill="white"/>
<path opacity="0.6" d="M482.674 138.239H546.382V201.948H482.674V138.239Z" fill="white"/>
<path opacity="0.6" d="M551.637 207.213H615.345V270.921H551.637V207.213Z" fill="white"/>
<path opacity="0.4" d="M684.078 271.223L620.37 271.223L620.37 207.515L684.078 207.515L684.078 271.223Z" fill="white"/>
<path opacity="0.4" d="M753.041 271.223L689.333 271.223L689.333 207.515L753.041 207.515L753.041 271.223Z" fill="white"/>
<path opacity="0.8" d="M133.447 202.461L69.7386 202.461L69.7386 138.753L133.447 138.753L133.447 202.461Z" fill="white"/>
<path opacity="0.4" d="M684.078 202.252L620.37 202.252L620.37 138.543L684.078 138.543L684.078 202.252Z" fill="white"/>
<path opacity="0.4" d="M684.078 133.296L620.37 133.296L620.37 69.5873L684.078 69.5873L684.078 133.296Z" fill="white"/>
<path opacity="0.6" d="M63.7085 270.482L0 270.482L5.56958e-06 206.774L63.7086 206.774L63.7085 270.482Z" fill="white"/>
<path opacity="0.8" d="M132.672 270.483L68.9634 270.483L68.9634 206.774L132.672 206.774L132.672 270.483Z" fill="white"/>
<path opacity="0.6" d="M63.7085 201.511L0 201.511L5.56958e-06 137.803L63.7086 137.803L63.7085 201.511Z" fill="white"/>
<path opacity="0.6" d="M63.7085 132.558L0 132.558L5.56958e-06 68.8491L63.7086 68.8491L63.7085 132.558Z" fill="white"/>
</g>
<g opacity="0.8">
<path opacity="0.6" d="M1651.09 137.61H1714.8V201.318H1651.09V137.61Z" fill="white"/>
<path opacity="0.6" d="M1031.49 68.8481H1095.2V132.557H1031.49V68.8481Z" fill="white"/>
<path opacity="0.6" d="M1720.04 137.61H1783.75V201.318H1720.04V137.61Z" fill="white"/>
<path opacity="0.8" d="M1100.45 68.8481H1164.16V132.557H1100.45V68.8481Z" fill="white"/>
<path opacity="0.6" d="M1720.04 207.589H1783.75V271.297H1720.04V207.589Z" fill="white"/>
<path opacity="0.8" d="M1100.45 137.812H1164.16V201.52H1100.45V137.812Z" fill="white"/>
<path opacity="0.6" d="M1789.01 207.589H1852.72V271.297H1789.01V207.589Z" fill="white"/>
<path opacity="0.3" d="M1301.85 138.436L1238.14 138.436V202.144L1301.85 202.144V138.436Z" fill="white"/>
<path opacity="0.3" d="M1232.9 138.436L1169.19 138.436V202.144L1232.9 202.144V138.436Z" fill="white"/>
<path opacity="0.3" d="M1232.9 207.398L1169.19 207.398V271.107L1232.9 271.107V207.398Z" fill="white"/>
<path opacity="0.3" d="M1163.93 207.398L1100.22 207.398V271.107L1163.93 271.107V207.398Z" fill="white"/>
<path opacity="0.8" d="M1856.29 0H1920V63.7085H1856.29V0Z" fill="white"/>
<path opacity="0.8" d="M1856.29 207.589H1920V271.297H1856.29V207.589Z" fill="white"/>
<path opacity="0.8" d="M1856.29 68.9722H1920V132.681H1856.29V68.9722Z" fill="white"/>
<path opacity="0.8" d="M1856.29 137.926H1920V201.634H1856.29V137.926Z" fill="white"/>
<path opacity="0.8" d="M1375.84 207.389H1439.55V271.098H1375.84V207.389Z" fill="white"/>
<path opacity="0.8" d="M1306.88 207.389H1370.58V271.098H1306.88V207.389Z" fill="white"/>
<path opacity="0.8" d="M1306.88 138.436H1370.58V202.144H1306.88V138.436Z" fill="white"/>
<path opacity="0.8" d="M1237.91 207.389H1301.62V271.098H1237.91V207.389Z" fill="white"/>
<path opacity="0.6" d="M1513.53 138.239H1577.24V201.948H1513.53V138.239Z" fill="white"/>
<path opacity="0.6" d="M1444.57 207.213H1508.28V270.921H1444.57V207.213Z" fill="white"/>
<path opacity="0.6" d="M1444.57 138.239H1508.28V201.948H1444.57V138.239Z" fill="white"/>
<path opacity="0.6" d="M1513.53 207.213H1577.24V270.921H1513.53V207.213Z" fill="white"/>
<path opacity="0.4" d="M1645.97 271.223L1582.27 271.223L1582.27 207.515L1645.97 207.515L1645.97 271.223Z" fill="white"/>
<path opacity="0.4" d="M1714.94 271.223L1651.23 271.223L1651.23 207.515L1714.94 207.515L1714.94 271.223Z" fill="white"/>
<path opacity="0.8" d="M1095.34 202.461L1031.64 202.461L1031.64 138.753L1095.34 138.753L1095.34 202.461Z" fill="white"/>
<path opacity="0.4" d="M1645.97 202.252L1582.27 202.252L1582.27 138.543L1645.97 138.543L1645.97 202.252Z" fill="white"/>
<path opacity="0.4" d="M1645.97 133.296L1582.27 133.296L1582.27 69.5873L1645.97 69.5873L1645.97 133.296Z" fill="white"/>
<path opacity="0.6" d="M1025.6 270.482L961.896 270.482L961.896 206.774L1025.6 206.774L1025.6 270.482Z" fill="white"/>
<path opacity="0.8" d="M1094.57 270.483L1030.86 270.483L1030.86 206.774L1094.57 206.774L1094.57 270.483Z" fill="white"/>
<path opacity="0.6" d="M1025.6 201.511L961.896 201.511L961.896 137.803L1025.6 137.803L1025.6 201.511Z" fill="white"/>
<path opacity="0.6" d="M1025.6 132.558L961.896 132.558L961.896 68.8491L1025.6 68.8491L1025.6 132.558Z" fill="white"/>
</g>
</svg>
