<svg width="1920" height="544" viewBox="0 0 1920 544" fill="none" xmlns="http://www.w3.org/2000/svg">
<g opacity="0.8">
<path opacity="0.6" d="M1381.11 275.766H1508.78V403.435H1381.11V275.766Z" fill="white"/>
<path opacity="0.6" d="M139.468 137.969H267.138V265.638H139.468V137.969Z" fill="white"/>
<path opacity="0.6" d="M1519.29 275.766H1646.96V403.435H1519.29V275.766Z" fill="white"/>
<path opacity="0.8" d="M277.651 137.969H405.32V265.638H277.651V137.969Z" fill="white"/>
<path opacity="0.6" d="M1519.29 416H1646.96V543.669H1519.29V416Z" fill="white"/>
<path opacity="0.8" d="M277.651 276.169H405.32V403.838H277.651V276.169Z" fill="white"/>
<path opacity="0.6" d="M1657.51 416H1785.18V543.669H1657.51V416Z" fill="white"/>
<path opacity="0.3" d="M681.256 277.421L553.587 277.421L553.587 405.09L681.256 405.09L681.256 277.421Z" fill="white"/>
<path opacity="0.3" d="M543.076 277.421L415.407 277.421L415.407 405.09L543.076 405.09L543.076 277.421Z" fill="white"/>
<path opacity="0.3" d="M543.078 415.618L415.409 415.618L415.409 543.287L543.078 543.287L543.078 415.618Z" fill="white"/>
<path opacity="0.3" d="M404.861 415.618L277.191 415.618L277.191 543.287L404.861 543.287L404.861 415.618Z" fill="white"/>
<path opacity="0.8" d="M1792.33 0H1920V127.669H1792.33V0Z" fill="white"/>
<path opacity="0.8" d="M1792.33 416H1920V543.669H1792.33V416Z" fill="white"/>
<path opacity="0.8" d="M1792.33 138.217H1920V265.886H1792.33V138.217Z" fill="white"/>
<path opacity="0.8" d="M1792.33 276.397H1920V404.067H1792.33V276.397Z" fill="white"/>
<path opacity="0.8" d="M829.522 415.601H957.191V543.27H829.522V415.601Z" fill="white"/>
<path opacity="0.8" d="M691.323 415.601H818.992V543.27H691.323V415.601Z" fill="white"/>
<path opacity="0.8" d="M691.323 277.421H818.992V405.09H691.323V277.421Z" fill="white"/>
<path opacity="0.8" d="M553.124 415.601H680.794V543.27H553.124V415.601Z" fill="white"/>
<path opacity="0.6" d="M1105.46 277.027H1233.13V404.697H1105.46V277.027Z" fill="white"/>
<path opacity="0.6" d="M967.258 415.246H1094.93V542.915H967.258V415.246Z" fill="white"/>
<path opacity="0.6" d="M967.258 277.027H1094.93V404.697H967.258V277.027Z" fill="white"/>
<path opacity="0.6" d="M1105.46 415.246H1233.13V542.915H1105.46V415.246Z" fill="white"/>
<path opacity="0.4" d="M1370.86 543.521L1243.2 543.521L1243.2 415.852L1370.86 415.852L1370.86 543.521Z" fill="white"/>
<path opacity="0.4" d="M1509.06 543.521L1381.39 543.521L1381.39 415.852L1509.06 415.852L1509.06 543.521Z" fill="white"/>
<path opacity="0.8" d="M267.422 405.725L139.753 405.725L139.753 278.055L267.422 278.055L267.422 405.725Z" fill="white"/>
<path opacity="0.4" d="M1370.86 405.305L1243.2 405.305L1243.2 277.635L1370.86 277.635L1370.86 405.305Z" fill="white"/>
<path opacity="0.4" d="M1370.86 267.12L1243.2 267.12L1243.2 139.451L1370.86 139.451L1370.86 267.12Z" fill="white"/>
<path opacity="0.6" d="M127.669 542.035L0 542.035L1.11612e-05 414.366L127.669 414.366L127.669 542.035Z" fill="white"/>
<path opacity="0.8" d="M265.869 542.037L138.2 542.037L138.2 414.368L265.869 414.368L265.869 542.037Z" fill="white"/>
<path opacity="0.6" d="M127.669 403.82L0 403.82L1.11612e-05 276.151L127.669 276.151L127.669 403.82Z" fill="white"/>
<path opacity="0.6" d="M127.669 265.64L0 265.64L1.11612e-05 137.97L127.669 137.97L127.669 265.64Z" fill="white"/>
</g>
</svg>
