<svg width="291" height="47" viewBox="0 0 291 47" fill="none" xmlns="http://www.w3.org/2000/svg">
<path d="M15.4158 3.03584H9.57168V17.9118H6.30808V3.03584H0.489258V0.25293H15.4158V3.03584Z" fill="#E21F26"/>
<path d="M35.8323 1.01189C36.9707 1.51788 37.8309 2.25156 38.4381 3.18763C39.0453 4.1237 39.3489 5.23687 39.3489 6.55243C39.3489 7.86799 39.0453 8.95586 38.4381 9.89193C37.8309 10.8533 36.9707 11.5617 35.8323 12.0677C34.6938 12.5736 33.353 12.8266 31.835 12.8266H27.8377V17.9118H24.5488V0.25293H31.8097C33.3277 0.25293 34.6685 0.50591 35.807 1.01189H35.8323ZM34.9468 9.13294C35.6805 8.52576 36.06 7.66559 36.06 6.52713C36.06 5.38866 35.6805 4.52849 34.9468 3.92131C34.2131 3.31413 33.1253 3.01054 31.6832 3.01054H27.8377V10.0184H31.6832C33.1 10.0184 34.1878 9.71484 34.9468 9.10766V9.13294Z" fill="#E21F26"/>
<path d="M59.5875 13.8402H50.7581L49.0124 17.9386H45.6223L53.5663 0.279785H56.8046L64.7738 17.9386H61.3331L59.5622 13.8402H59.5875ZM58.4996 11.2597L55.1601 3.54339L51.8459 11.2597H58.4743H58.4996Z" fill="#E21F26"/>
<path d="M89.4917 0.25293V17.9118H86.2028V10.3473H77.0698V17.9118H73.7809V0.25293H77.0698V7.5391H86.2028V0.25293H89.4917Z" fill="#E21F26"/>
<path d="M104.066 17.0008C102.624 16.2165 101.51 15.1286 100.676 13.7625C99.866 12.3963 99.4612 10.8278 99.4612 9.10742C99.4612 7.38707 99.866 5.81851 100.701 4.45235C101.536 3.08619 102.649 1.99833 104.091 1.21405C105.533 0.429779 107.152 0.050293 108.923 0.050293C110.365 0.050293 111.681 0.303293 112.895 0.809277C114.084 1.31526 115.096 2.04893 115.931 3.0103L113.806 5.00894C112.516 3.64278 110.947 2.9344 109.075 2.9344C107.861 2.9344 106.773 3.18739 105.811 3.71867C104.85 4.24996 104.116 4.98364 103.56 5.91971C103.028 6.85578 102.75 7.91834 102.75 9.1327C102.75 10.3471 103.028 11.3843 103.56 12.3457C104.091 13.3071 104.85 14.0155 105.811 14.5468C106.773 15.078 107.861 15.331 109.075 15.331C110.947 15.331 112.516 14.6226 113.806 13.2312L115.931 15.2551C115.096 16.2165 114.084 16.9502 112.895 17.4561C111.681 17.9621 110.365 18.2151 108.923 18.2151C107.127 18.2151 105.533 17.8356 104.091 17.0514L104.066 17.0008Z" fill="#E21F26"/>
<path d="M140.9 0.25293V17.9118H137.662V3.03584H128.504V17.9118H125.265V0.25293H140.875H140.9Z" fill="#E21F26"/>
<path d="M155.499 17.0011C154.057 16.2168 152.918 15.1289 152.083 13.7375C151.248 12.346 150.844 10.8028 150.844 9.08241C150.844 7.36206 151.248 5.81882 152.083 4.42736C152.918 3.03591 154.031 1.94804 155.499 1.16376C156.941 0.379486 158.56 0 160.356 0C162.152 0 163.771 0.379486 165.213 1.16376C166.656 1.94804 167.794 3.0359 168.629 4.40206C169.464 5.76822 169.869 7.33676 169.869 9.05711C169.869 10.7775 169.464 12.346 168.629 13.7122C167.794 15.0783 166.681 16.1662 165.213 16.9505C163.771 17.7347 162.152 18.1142 160.356 18.1142C158.56 18.1142 156.941 17.7347 155.499 16.9505V17.0011ZM163.544 14.4964C164.48 13.9652 165.213 13.2315 165.77 12.2701C166.301 11.3087 166.58 10.2462 166.58 9.08241C166.58 7.91865 166.301 6.83077 165.77 5.8947C165.239 4.93333 164.48 4.19966 163.544 3.66838C162.608 3.1371 161.545 2.88411 160.356 2.88411C159.167 2.88411 158.13 3.1371 157.168 3.66838C156.232 4.19966 155.473 4.93333 154.942 5.8947C154.411 6.85607 154.132 7.91865 154.132 9.08241C154.132 10.2462 154.411 11.334 154.942 12.2701C155.473 13.2315 156.207 13.9652 157.168 14.4964C158.104 15.0277 159.167 15.2807 160.356 15.2807C161.545 15.2807 162.582 15.0277 163.544 14.4964Z" fill="#E21F26"/>
<path d="M191.094 1.01189C192.232 1.51788 193.093 2.25156 193.7 3.18763C194.307 4.1237 194.61 5.23687 194.61 6.55243C194.61 7.86799 194.307 8.95586 193.7 9.89193C193.093 10.8533 192.232 11.5617 191.094 12.0677C189.955 12.5736 188.615 12.8266 187.097 12.8266H183.099V17.9118H179.81V0.25293H187.071C188.589 0.25293 189.93 0.50591 191.069 1.01189H191.094ZM190.208 9.13294C190.942 8.52576 191.322 7.66559 191.322 6.52713C191.322 5.38866 190.942 4.52849 190.208 3.92131C189.475 3.31413 188.387 3.01054 186.945 3.01054H183.099V10.0184H186.945C188.362 10.0184 189.449 9.71484 190.208 9.10766V9.13294Z" fill="#E21F26"/>
<path d="M216.343 3.03584H210.499V17.9118H207.235V3.03584H201.416V0.25293H216.343V3.03584Z" fill="#E21F26"/>
<path d="M241.186 0.25293V17.9118H237.897V10.3473H228.764V17.9118H225.476V0.25293H228.764V7.5391H237.897V0.25293H241.186Z" fill="#E21F26"/>
<path d="M264.158 13.8402H255.328L253.582 17.9386H250.192L258.136 0.279785H261.375L269.344 17.9386H265.903L264.132 13.8402H264.158ZM263.07 11.2597L259.73 3.54339L256.416 11.2597H263.044H263.07Z" fill="#E21F26"/>
<path d="M290.975 0.25293V17.9118H287.736V13.0037H283.031L279.742 17.9118H276.276L280.071 12.4724C278.831 12.0171 277.895 11.3087 277.237 10.322C276.579 9.33534 276.251 8.14629 276.251 6.75483C276.251 5.36337 276.554 4.25019 277.161 3.26352C277.769 2.27685 278.629 1.54318 279.742 1.0372C280.855 0.531215 282.145 0.278215 283.663 0.278215H291L290.975 0.25293ZM280.653 3.97192C279.944 4.6044 279.59 5.51516 279.59 6.70422C279.59 7.89328 279.944 8.75347 280.627 9.38595C281.31 10.0184 282.322 10.322 283.638 10.322H287.787V3.03584H283.764C282.424 3.03584 281.386 3.33944 280.678 3.97192H280.653Z" fill="#E21F26"/>
<path d="M7.01646 38.883H3.72755V46.321H0.489258V28.6621H3.72755V36.0495H7.11766L12.1775 28.6621H15.6688L9.64756 37.2132L15.8965 46.321H12.1775L7.01646 38.883Z" fill="#E21F26"/>
<path d="M27.7091 45.4102C26.2671 44.626 25.1286 43.5381 24.2938 42.1466C23.4589 40.7552 23.0541 39.2119 23.0541 37.4916C23.0541 35.7712 23.4589 34.228 24.2938 32.8365C25.1286 31.4451 26.2418 30.3572 27.7091 29.5729C29.1512 28.7887 30.7704 28.4092 32.5666 28.4092C34.3629 28.4092 35.982 28.7887 37.4241 29.5729C38.8661 30.3572 40.0045 31.4451 40.8394 32.8112C41.6743 34.1774 42.0791 35.7459 42.0791 37.4663C42.0791 39.1866 41.6743 40.7552 40.8394 42.1214C40.0045 43.4875 38.8914 44.5754 37.4241 45.3596C35.982 46.1439 34.3629 46.5234 32.5666 46.5234C30.7704 46.5234 29.1512 46.1439 27.7091 45.3596V45.4102ZM35.7543 42.9056C36.6904 42.3743 37.4241 41.6407 37.9806 40.6793C38.5119 39.7179 38.7902 38.6554 38.7902 37.4916C38.7902 36.3278 38.5119 35.24 37.9806 34.3039C37.4494 33.3425 36.6904 32.6088 35.7543 32.0776C34.8182 31.5463 33.7557 31.2933 32.5666 31.2933C31.3775 31.2933 30.3403 31.5463 29.3789 32.0776C28.4428 32.6088 27.6839 33.3425 27.1526 34.3039C26.6213 35.2653 26.343 36.3278 26.343 37.4916C26.343 38.6554 26.6213 39.7432 27.1526 40.6793C27.6839 41.6407 28.4175 42.3743 29.3789 42.9056C30.315 43.4369 31.3775 43.6899 32.5666 43.6899C33.7557 43.6899 34.7929 43.4369 35.7543 42.9056Z" fill="#E21F26"/>
<path d="M68.2655 46.3478V34.6343L62.4467 44.3239H60.9793L55.1858 34.7861V46.3478H52.074V28.689H54.781L61.7636 40.3772L68.6703 28.689H71.352L71.4026 46.3478H68.2655Z" fill="#E21F26"/>
<path d="M98.2957 28.6621V46.321H95.0574V31.445H85.8991V46.321H82.6608V28.6621H98.2704H98.2957Z" fill="#E21F26"/>
<path d="M121.293 42.2493H112.463L110.718 46.3478H107.328L115.272 28.689H118.51L126.479 46.3478H123.039L121.268 42.2493H121.293ZM120.205 39.6688L116.866 31.9526L113.551 39.6688H120.18H120.205Z" fill="#E21F26"/>
<path d="M151.197 28.6621V46.321H147.908V38.7565H138.775V46.321H135.486V28.6621H138.775V35.9483H147.908V28.6621H151.197Z" fill="#E21F26"/>
<path d="M162.479 28.6621H165.717V41.2105L175.204 28.6621H178.265V46.321H175.027V33.7978L165.54 46.321H162.479V28.6621Z" fill="#E21F26"/>
<path d="M203.01 28.6621V46.321H199.772V41.4129H195.066L191.777 46.321H188.311L192.106 40.8816C190.867 40.4262 189.931 39.7179 189.273 38.7312C188.615 37.7445 188.286 36.5555 188.286 35.164C188.286 33.7726 188.59 32.6594 189.197 31.6727C189.804 30.686 190.664 29.9524 191.777 29.4464C192.891 28.9404 194.181 28.6874 195.699 28.6874H203.036L203.01 28.6621ZM192.688 32.3811C191.98 33.0136 191.626 33.9243 191.626 35.1134C191.626 36.3025 191.98 37.1626 192.663 37.7951C193.346 38.4276 194.358 38.7312 195.674 38.7312H199.823V31.445H195.8C194.459 31.445 193.422 31.7486 192.713 32.3811H192.688Z" fill="#E21F26"/>
</svg>
