<svg width="153" height="71" viewBox="0 0 153 71" fill="none" xmlns="http://www.w3.org/2000/svg">
<path fill-rule="evenodd" clip-rule="evenodd" d="M105.856 13.5675H89.668V60.4625H72.8282V13.5675H56.6182V0.0078125H105.856V13.5675Z" fill="#E21F26"/>
<path d="M137.449 24.1833C142.457 25.223 146.301 27.2804 148.981 30.3555C151.661 33.4379 153 37.1646 153 41.5429C153 45.1159 152.034 48.4252 150.108 51.4783C148.183 54.5315 145.239 56.9915 141.3 58.8659C137.354 60.7402 132.478 61.67 126.657 61.67C122.396 61.67 118.179 61.1502 114.005 60.1179C109.832 59.0782 106.215 57.6139 103.162 55.7102L109.378 42.8388C111.736 44.4496 114.401 45.6869 117.366 46.5509C120.331 47.4148 123.253 47.8468 126.13 47.8468C129.007 47.8468 131.402 47.2977 133.13 46.2068C134.857 45.1158 135.721 43.5563 135.721 41.5429C135.721 37.6258 132.639 35.671 126.481 35.671H119.314V24.8716L129.791 13.5596H109.993V0H149.977V10.7115L137.449 24.1833Z" fill="#E21F26"/>
<path d="M37.4863 52.2324H29.2568V60.4619H37.4863V52.2324Z" fill="#F8B916"/>
<path d="M27.7636 52.2324H19.5341V60.4619H27.7636V52.2324Z" fill="#F8B916"/>
<path d="M18.0478 52.2324H9.8183V60.4619H18.0478V52.2324Z" fill="#F8B916"/>
<path d="M47.0996 33.0059H38.8701V41.2354H47.0996V33.0059Z" fill="#A42381"/>
<path d="M47.0996 42.6191H38.8701V50.8486H47.0996V42.6191Z" fill="#A42381"/>
<path d="M47.0996 52.2324H38.8701V60.4619H47.0996V52.2324Z" fill="#A42381"/>
<path d="M37.4794 42.6191H29.2499V50.8486H37.4794V42.6191Z" fill="#A42381"/>
<path d="M56.6181 23.2812H48.3886V31.5108H56.6181V23.2812Z" fill="#179547"/>
<path d="M56.6181 52.2324H48.3886V60.4619H56.6181V52.2324Z" fill="#179547"/>
<path d="M56.6181 33.0059H48.3886V41.2354H56.6181V33.0059Z" fill="#179547"/>
<path d="M56.6181 42.6191H48.3886V50.8486H56.6181V42.6191Z" fill="#179547"/>
<path d="M37.4863 13.5664H29.2568V21.7959H37.4863V13.5664Z" fill="#E21F26"/>
<path d="M27.7636 13.5664H19.5341V21.7959H27.7636V13.5664Z" fill="#E21F26"/>
<path d="M27.7636 23.2812H19.5341V31.5108H27.7636V23.2812Z" fill="#E21F26"/>
<path d="M18.0478 23.2812H9.8183V31.5108H18.0478V23.2812Z" fill="#E21F26"/>
<path d="M8.32521 42.6191H0.0957031V50.8486H8.32521V42.6191Z" fill="#00519A"/>
<path d="M8.32521 52.2324H0.0957031V60.4619H8.32521V52.2324Z" fill="#00519A"/>
<path d="M4.31976 66.1726H2.62846V70.4777H1.68397V66.1726H0V65.3672H4.31976V66.1726Z" fill="#E21F26"/>
<path d="M10.2283 65.5868C10.5578 65.7333 10.8067 65.9456 10.9825 66.2165C11.1582 66.4874 11.246 66.8095 11.246 67.1903C11.246 67.571 11.1582 67.8858 10.9825 68.1567C10.8067 68.4349 10.5578 68.64 10.2283 68.7864C9.89886 68.9328 9.51082 69.006 9.07152 69.006H7.9147V70.4777H6.96289V65.3672H9.0642C9.50349 65.3672 9.89154 65.4404 10.221 65.5868H10.2283ZM9.97208 67.9371C10.1844 67.7614 10.2942 67.5124 10.2942 67.1829C10.2942 66.8535 10.1844 66.6045 9.97208 66.4288C9.75975 66.2531 9.44492 66.1652 9.02759 66.1652H7.9147V68.1933H9.02759C9.4376 68.1933 9.75243 68.1055 9.97208 67.9298V67.9371Z" fill="#E21F26"/>
<path d="M17.1031 69.2994H14.5478L14.0426 70.4855H13.0615L15.3605 65.375H16.2977L18.604 70.4855H17.6083L17.0957 69.2994H17.1031ZM16.7882 68.5526L15.8218 66.3195L14.8626 68.5526H16.7809H16.7882Z" fill="#E21F26"/>
<path d="M25.7575 65.3672V70.4777H24.8057V68.2885H22.1626V70.4777H21.2108V65.3672H22.1626V67.4758H24.8057V65.3672H25.7575Z" fill="#E21F26"/>
<path d="M29.9751 70.2141C29.5578 69.9871 29.2356 69.6723 28.994 69.2769C28.7597 68.8815 28.6426 68.4276 28.6426 67.9297C28.6426 67.4319 28.7597 66.9779 29.0013 66.5826C29.243 66.1872 29.5651 65.8724 29.9824 65.6454C30.3998 65.4184 30.8684 65.3086 31.3809 65.3086C31.7982 65.3086 32.1789 65.3818 32.5304 65.5282C32.8745 65.6747 33.1673 65.887 33.409 66.1652L32.7939 66.7436C32.4205 66.3483 31.9666 66.1433 31.4248 66.1433C31.0734 66.1433 30.7585 66.2165 30.4803 66.3702C30.2021 66.524 29.9898 66.7363 29.8287 67.0072C29.6749 67.2781 29.5944 67.5856 29.5944 67.9371C29.5944 68.2885 29.6749 68.5887 29.8287 68.8669C29.9824 69.1451 30.2021 69.3501 30.4803 69.5039C30.7585 69.6576 31.0734 69.7309 31.4248 69.7309C31.9666 69.7309 32.4205 69.5258 32.7939 69.1232L33.409 69.7089C33.1673 69.9871 32.8745 70.1994 32.5304 70.3459C32.1789 70.4923 31.7982 70.5655 31.3809 70.5655C30.861 70.5655 30.3998 70.4557 29.9824 70.2287L29.9751 70.2141Z" fill="#E21F26"/>
<path d="M40.635 65.3672V70.4777H39.6978V66.1726H37.0474V70.4777H36.1102V65.3672H40.6277H40.635Z" fill="#E21F26"/>
<path d="M44.8599 70.2131C44.4425 69.9861 44.1131 69.6713 43.8715 69.2686C43.6298 68.8659 43.5127 68.4193 43.5127 67.9214C43.5127 67.4236 43.6298 66.9769 43.8715 66.5743C44.1131 66.1716 44.4352 65.8567 44.8599 65.6298C45.2772 65.4028 45.7458 65.293 46.2656 65.293C46.7855 65.293 47.254 65.4028 47.6714 65.6298C48.0887 65.8567 48.4182 66.1716 48.6598 66.5669C48.9014 66.9623 49.0186 67.4162 49.0186 67.9141C49.0186 68.412 48.9014 68.8659 48.6598 69.2613C48.4182 69.6567 48.096 69.9715 47.6714 70.1985C47.254 70.4254 46.7855 70.5352 46.2656 70.5352C45.7458 70.5352 45.2772 70.4254 44.8599 70.1985V70.2131ZM47.1881 69.4883C47.459 69.3345 47.6714 69.1222 47.8325 68.844C47.9862 68.5657 48.0667 68.2582 48.0667 67.9214C48.0667 67.5846 47.9862 67.2698 47.8325 66.9989C47.6787 66.7207 47.459 66.5084 47.1881 66.3546C46.9172 66.2008 46.6097 66.1276 46.2656 66.1276C45.9215 66.1276 45.6213 66.2008 45.3431 66.3546C45.0722 66.5084 44.8526 66.7207 44.6988 66.9989C44.545 67.2771 44.4645 67.5846 44.4645 67.9214C44.4645 68.2582 44.545 68.5731 44.6988 68.844C44.8526 69.1222 45.0649 69.3345 45.3431 69.4883C45.614 69.642 45.9215 69.7152 46.2656 69.7152C46.6097 69.7152 46.9099 69.642 47.1881 69.4883Z" fill="#E21F26"/>
<path d="M55.1611 65.5868C55.4906 65.7333 55.7395 65.9456 55.9153 66.2165C56.091 66.4874 56.1788 66.8095 56.1788 67.1903C56.1788 67.571 56.091 67.8858 55.9153 68.1567C55.7395 68.4349 55.4906 68.64 55.1611 68.7864C54.8317 68.9328 54.4436 69.006 54.0043 69.006H52.8475V70.4777H51.8957V65.3672H53.997C54.4363 65.3672 54.8243 65.4404 55.1538 65.5868H55.1611ZM54.9049 67.9371C55.1172 67.7614 55.227 67.5124 55.227 67.1829C55.227 66.8535 55.1172 66.6045 54.9049 66.4288C54.6926 66.2531 54.3777 66.1652 53.9604 66.1652H52.8475V68.1933H53.9604C54.3704 68.1933 54.6852 68.1055 54.9049 67.9298V67.9371Z" fill="#E21F26"/>
<path d="M62.4681 66.1726H60.7768V70.4777H59.8323V66.1726H58.1483V65.3672H62.4681V66.1726Z" fill="#E21F26"/>
<path d="M69.6579 65.3672V70.4777H68.7061V68.2885H66.063V70.4777H65.1112V65.3672H66.063V67.4758H68.7061V65.3672H69.6579Z" fill="#E21F26"/>
<path d="M76.3062 69.2994H73.7509L73.2457 70.4855H72.2646L74.5636 65.375H75.5008L77.8071 70.4855H76.8114L76.2989 69.2994H76.3062ZM75.9914 68.5526L75.0249 66.3195L74.0658 68.5526H75.984H75.9914Z" fill="#E21F26"/>
<path d="M84.0669 65.3672V70.4777H83.1297V69.0573H81.7679L80.8161 70.4777H79.813L80.9113 68.9035C80.5525 68.7717 80.2816 68.5667 80.0913 68.2812C79.9009 67.9956 79.8057 67.6515 79.8057 67.2488C79.8057 66.8462 79.8936 66.524 80.0693 66.2385C80.245 65.9529 80.494 65.7406 80.8161 65.5942C81.1383 65.4477 81.5117 65.3745 81.951 65.3745H84.0742L84.0669 65.3672ZM81.0797 66.4435C80.8747 66.6265 80.7722 66.8901 80.7722 67.2342C80.7722 67.5783 80.8747 67.8273 81.0724 68.0103C81.2701 68.1933 81.5629 68.2812 81.9436 68.2812H83.1444V66.1726H81.9802C81.5922 66.1726 81.292 66.2604 81.087 66.4435H81.0797Z" fill="#E21F26"/>
<path d="M93.2482 68.3251H92.2964V70.4777H91.3593V65.3672H92.2964V67.5051H93.2775L94.7418 65.3672H95.7522L94.0097 67.8419L95.8181 70.4777H94.7418L93.2482 68.3251Z" fill="#E21F26"/>
<path d="M99.2378 70.2131C98.8205 69.9861 98.491 69.6713 98.2494 69.2686C98.0078 68.8659 97.8906 68.4193 97.8906 67.9214C97.8906 67.4236 98.0078 66.9769 98.2494 66.5743C98.491 66.1716 98.8131 65.8567 99.2378 65.6298C99.6551 65.4028 100.124 65.293 100.644 65.293C101.163 65.293 101.632 65.4028 102.049 65.6298C102.467 65.8567 102.796 66.1716 103.038 66.5669C103.279 66.9623 103.396 67.4162 103.396 67.9141C103.396 68.412 103.279 68.8659 103.038 69.2613C102.796 69.6567 102.474 69.9715 102.049 70.1985C101.632 70.4254 101.163 70.5352 100.644 70.5352C100.124 70.5352 99.6551 70.4254 99.2378 70.1985V70.2131ZM101.566 69.4883C101.837 69.3345 102.049 69.1222 102.21 68.844C102.364 68.5657 102.445 68.2582 102.445 67.9214C102.445 67.5846 102.364 67.2698 102.21 66.9989C102.057 66.7207 101.837 66.5084 101.566 66.3546C101.295 66.2008 100.988 66.1276 100.644 66.1276C100.299 66.1276 99.9993 66.2008 99.721 66.3546C99.4501 66.5084 99.2305 66.7207 99.0767 66.9989C98.923 67.2771 98.8424 67.5846 98.8424 67.9214C98.8424 68.2582 98.923 68.5731 99.0767 68.844C99.2305 69.1222 99.4428 69.3345 99.721 69.4883C99.9919 69.642 100.299 69.7152 100.644 69.7152C100.988 69.7152 101.288 69.642 101.566 69.4883Z" fill="#E21F26"/>
<path d="M110.974 70.4855V67.0956L109.29 69.8998H108.865L107.189 67.1395V70.4855H106.288V65.375H107.071L109.092 68.7576L111.091 65.375H111.867L111.882 70.4855H110.974Z" fill="#E21F26"/>
<path d="M119.664 65.3672V70.4777H118.727V66.1726H116.077V70.4777H115.14V65.3672H119.657H119.664Z" fill="#E21F26"/>
<path d="M126.32 69.2994H123.765L123.26 70.4855H122.278L124.577 65.375H125.515L127.821 70.4855H126.825L126.313 69.2994H126.32ZM126.005 68.5526L125.039 66.3195L124.08 68.5526H125.998H126.005Z" fill="#E21F26"/>
<path d="M134.974 65.3672V70.4777H134.023V68.2885H131.38V70.4777H130.428V65.3672H131.38V67.4758H134.023V65.3672H134.974Z" fill="#E21F26"/>
<path d="M138.239 65.3672H139.176V68.9987L141.922 65.3672H142.808V70.4777H141.871V66.8535L139.125 70.4777H138.239V65.3672Z" fill="#E21F26"/>
<path d="M149.969 65.3672V70.4777H149.032V69.0573H147.67L146.718 70.4777H145.715L146.814 68.9035C146.455 68.7717 146.184 68.5667 145.994 68.2812C145.803 67.9956 145.708 67.6515 145.708 67.2488C145.708 66.8462 145.796 66.524 145.972 66.2385C146.147 65.9529 146.396 65.7406 146.718 65.5942C147.041 65.4477 147.414 65.3745 147.853 65.3745H149.977L149.969 65.3672ZM146.982 66.4435C146.777 66.6265 146.674 66.8901 146.674 67.2342C146.674 67.5783 146.777 67.8273 146.975 68.0103C147.172 68.1933 147.465 68.2812 147.846 68.2812H149.047V66.1726H147.883C147.494 66.1726 147.194 66.2604 146.989 66.4435H146.982Z" fill="#E21F26"/>
</svg>
