<svg width="102" height="48" viewBox="0 0 102 48" fill="none" xmlns="http://www.w3.org/2000/svg">
<path fill-rule="evenodd" clip-rule="evenodd" d="M70.5708 9.80634H59.7788V41.0696H48.5523V9.80634H37.7456V0.766602H70.5708V9.80634Z" fill="white"/>
<path d="M91.6328 16.8829C94.9715 17.576 97.534 18.9476 99.3205 20.9977C101.107 23.0526 102 25.5371 102 28.4559C102 30.8379 101.356 33.0441 100.072 35.0795C98.7885 37.1149 96.8263 38.755 94.2003 40.0045C91.5694 41.2541 88.3186 41.874 84.4381 41.874C81.5974 41.874 78.7859 41.5274 76.0037 40.8392C73.2214 40.1461 70.8102 39.1699 68.7748 37.9008L72.9188 29.3199C74.4905 30.3937 76.2672 31.2186 78.2441 31.7946C80.2209 32.3706 82.1684 32.6585 84.0867 32.6585C86.005 32.6585 87.6011 32.2925 88.753 31.5652C89.9049 30.8379 90.4809 29.7982 90.4809 28.4559C90.4809 25.8446 88.426 24.5413 84.321 24.5413H79.5424V17.3417L86.5272 9.80048H73.3288V0.760742H99.9843V7.90175L91.6328 16.8829Z" fill="white"/>
<path d="M24.9907 35.582H19.5044V41.0684H24.9907V35.582Z" fill="#F8B916"/>
<path d="M18.5088 35.582H13.0225V41.0684H18.5088V35.582Z" fill="#F8B916"/>
<path d="M12.0317 35.582H6.54541V41.0684H12.0317V35.582Z" fill="#F8B916"/>
<path d="M31.3994 22.7646H25.9131V28.251H31.3994V22.7646Z" fill="#A42381"/>
<path d="M31.3994 29.1738H25.9131V34.6602H31.3994V29.1738Z" fill="#A42381"/>
<path d="M31.3994 35.582H25.9131V41.0684H31.3994V35.582Z" fill="#A42381"/>
<path d="M24.9863 29.1738H19.5V34.6602H24.9863V29.1738Z" fill="#A42381"/>
<path d="M37.7455 16.2812H32.2592V21.7676H37.7455V16.2812Z" fill="#179547"/>
<path d="M37.7456 35.582H32.2593V41.0684H37.7456V35.582Z" fill="#179547"/>
<path d="M37.7456 22.7646H32.2593V28.251H37.7456V22.7646Z" fill="#179547"/>
<path d="M37.7456 29.1738H32.2593V34.6602H37.7456V29.1738Z" fill="#179547"/>
<path d="M24.9908 9.80469H19.5045V15.291H24.9908V9.80469Z" fill="#E21F26"/>
<path d="M18.5088 9.80469H13.0225V15.291H18.5088V9.80469Z" fill="#E21F26"/>
<path d="M18.5088 16.2812H13.0225V21.7676H18.5088V16.2812Z" fill="#E21F26"/>
<path d="M12.032 16.2812H6.54565V21.7676H12.032V16.2812Z" fill="#E21F26"/>
<path d="M5.5498 29.1738H0.0634766V34.6602H5.5498V29.1738Z" fill="#00519A"/>
<path d="M5.5498 35.582H0.0634766V41.0684H5.5498V35.582Z" fill="#00519A"/>
<path d="M2.87983 44.8758H1.7523V47.7459H1.12265V44.8758H0V44.3389H2.87983V44.8758Z" fill="white"/>
<path d="M6.81893 44.4853C7.03857 44.5829 7.20453 44.7245 7.32168 44.9051C7.43882 45.0857 7.49739 45.3004 7.49739 45.5543C7.49739 45.8081 7.43882 46.018 7.32168 46.1986C7.20453 46.384 7.03857 46.5207 6.81893 46.6183C6.59928 46.7159 6.34058 46.7648 6.04772 46.7648H5.27651V47.7459H4.64197V44.3389H6.04283C6.3357 44.3389 6.5944 44.3877 6.81404 44.4853H6.81893ZM6.64809 46.0521C6.78964 45.935 6.86285 45.769 6.86285 45.5494C6.86285 45.3297 6.78964 45.1638 6.64809 45.0466C6.50654 44.9295 6.29665 44.8709 6.01843 44.8709H5.27651V46.223H6.01843C6.29177 46.223 6.50166 46.1644 6.64809 46.0472V46.0521Z" fill="white"/>
<path d="M11.4019 46.96H9.69838L9.36158 47.7507H8.70752L10.2402 44.3438H10.865L12.4025 47.7507H11.7387L11.397 46.96H11.4019ZM11.192 46.4621L10.5477 44.9734L9.90826 46.4621H11.1871H11.192Z" fill="white"/>
<path d="M17.1718 44.3389V47.7459H16.5372V46.2864H14.7752V47.7459H14.1406V44.3389H14.7752V45.7446H16.5372V44.3389H17.1718Z" fill="white"/>
<path d="M19.9836 47.5691C19.7053 47.4178 19.4906 47.2079 19.3295 46.9444C19.1733 46.6808 19.0952 46.3782 19.0952 46.0463C19.0952 45.7143 19.1733 45.4117 19.3344 45.1481C19.4955 44.8846 19.7102 44.6747 19.9885 44.5234C20.2667 44.372 20.5791 44.2988 20.9207 44.2988C21.199 44.2988 21.4528 44.3476 21.6871 44.4453C21.9165 44.5429 22.1117 44.6844 22.2728 44.8699L21.8628 45.2555C21.6138 44.9919 21.3112 44.8553 20.95 44.8553C20.7157 44.8553 20.5058 44.9041 20.3204 45.0066C20.1349 45.1091 19.9933 45.2506 19.8859 45.4312C19.7834 45.6118 19.7298 45.8168 19.7298 46.0511C19.7298 46.2854 19.7834 46.4855 19.8859 46.671C19.9885 46.8565 20.1349 46.9932 20.3204 47.0957C20.5058 47.1982 20.7157 47.247 20.95 47.247C21.3112 47.247 21.6138 47.1103 21.8628 46.8419L22.2728 47.2324C22.1117 47.4178 21.9165 47.5594 21.6871 47.657C21.4528 47.7546 21.199 47.8034 20.9207 47.8034C20.5742 47.8034 20.2667 47.7302 19.9885 47.5789L19.9836 47.5691Z" fill="white"/>
<path d="M27.0902 44.3389V47.7459H26.4654V44.8758H24.6984V47.7459H24.0737V44.3389H27.0853H27.0902Z" fill="white"/>
<path d="M29.9066 47.5691C29.6284 47.4178 29.4087 47.2079 29.2477 46.9395C29.0866 46.671 29.0085 46.3733 29.0085 46.0414C29.0085 45.7095 29.0866 45.4117 29.2477 45.1432C29.4087 44.8748 29.6235 44.6649 29.9066 44.5136C30.1848 44.3623 30.4972 44.2891 30.8438 44.2891C31.1903 44.2891 31.5027 44.3623 31.7809 44.5136C32.0592 44.6649 32.2788 44.8748 32.4399 45.1384C32.601 45.4019 32.679 45.7046 32.679 46.0365C32.679 46.3684 32.601 46.671 32.4399 46.9346C32.2788 47.1982 32.064 47.4081 31.7809 47.5594C31.5027 47.7107 31.1903 47.7839 30.8438 47.7839C30.4972 47.7839 30.1848 47.7107 29.9066 47.5594V47.5691ZM31.4588 47.0859C31.6394 46.9834 31.7809 46.8419 31.8883 46.6564C31.9908 46.4709 32.0445 46.2659 32.0445 46.0414C32.0445 45.8168 31.9908 45.6069 31.8883 45.4263C31.7858 45.2409 31.6394 45.0993 31.4588 44.9968C31.2782 44.8943 31.0732 44.8455 30.8438 44.8455C30.6144 44.8455 30.4142 44.8943 30.2288 44.9968C30.0482 45.0993 29.9017 45.2409 29.7992 45.4263C29.6967 45.6118 29.643 45.8168 29.643 46.0414C29.643 46.2659 29.6967 46.4758 29.7992 46.6564C29.9017 46.8419 30.0433 46.9834 30.2288 47.0859C30.4094 47.1884 30.6144 47.2372 30.8438 47.2372C31.0732 47.2372 31.2733 47.1884 31.4588 47.0859Z" fill="white"/>
<path d="M36.7737 44.4853C36.9933 44.5829 37.1593 44.7245 37.2765 44.9051C37.3936 45.0857 37.4522 45.3004 37.4522 45.5543C37.4522 45.8081 37.3936 46.018 37.2765 46.1986C37.1593 46.384 36.9933 46.5207 36.7737 46.6183C36.554 46.7159 36.2954 46.7648 36.0025 46.7648H35.2313V47.7459H34.5967V44.3389H35.9976C36.2905 44.3389 36.5492 44.3877 36.7688 44.4853H36.7737ZM36.6029 46.0521C36.7444 45.935 36.8176 45.769 36.8176 45.5494C36.8176 45.3297 36.7444 45.1638 36.6029 45.0466C36.4613 44.9295 36.2514 44.8709 35.9732 44.8709H35.2313V46.223H35.9732C36.2465 46.223 36.4564 46.1644 36.6029 46.0472V46.0521Z" fill="white"/>
<path d="M41.6454 44.8758H40.5179V47.7459H39.8882V44.8758H38.7656V44.3389H41.6454V44.8758Z" fill="white"/>
<path d="M46.4387 44.3389V47.7459H45.8041V46.2864H44.0421V47.7459H43.4075V44.3389H44.0421V45.7446H45.8041V44.3389H46.4387Z" fill="white"/>
<path d="M50.8707 46.96H49.1672L48.8304 47.7507H48.1763L49.709 44.3438H50.3338L51.8713 47.7507H51.2075L50.8658 46.96H50.8707ZM50.6608 46.4621L50.0165 44.9734L49.3771 46.4621H50.6559H50.6608Z" fill="white"/>
<path d="M56.0449 44.3389V47.7459H55.4201V46.7989H54.5122L53.8777 47.7459H53.209L53.9411 46.6964C53.702 46.6086 53.5214 46.4719 53.3945 46.2815C53.2676 46.0912 53.2041 45.8618 53.2041 45.5933C53.2041 45.3248 53.2627 45.1101 53.3798 44.9197C53.497 44.7294 53.6629 44.5878 53.8777 44.4902C54.0925 44.3926 54.3414 44.3437 54.6343 44.3437H56.0498L56.0449 44.3389ZM54.0534 45.0564C53.9167 45.1784 53.8484 45.3541 53.8484 45.5835C53.8484 45.8129 53.9167 45.9789 54.0485 46.1009C54.1803 46.223 54.3756 46.2815 54.6294 46.2815H55.4299V44.8758H54.6538C54.3951 44.8758 54.195 44.9344 54.0583 45.0564H54.0534Z" fill="white"/>
<path d="M62.1653 46.3108H61.5308V47.7459H60.906V44.3389H61.5308V45.7641H62.1848L63.1611 44.3389H63.8346L62.673 45.9887L63.8786 47.7459H63.1611L62.1653 46.3108Z" fill="white"/>
<path d="M66.1584 47.5691C65.8801 47.4178 65.6605 47.2079 65.4994 46.9395C65.3384 46.671 65.2603 46.3733 65.2603 46.0414C65.2603 45.7095 65.3384 45.4117 65.4994 45.1432C65.6605 44.8748 65.8753 44.6649 66.1584 44.5136C66.4366 44.3623 66.749 44.2891 67.0955 44.2891C67.4421 44.2891 67.7545 44.3623 68.0327 44.5136C68.3109 44.6649 68.5306 44.8748 68.6916 45.1384C68.8527 45.4019 68.9308 45.7046 68.9308 46.0365C68.9308 46.3684 68.8527 46.671 68.6916 46.9346C68.5306 47.1982 68.3158 47.4081 68.0327 47.5594C67.7545 47.7107 67.4421 47.7839 67.0955 47.7839C66.749 47.7839 66.4366 47.7107 66.1584 47.5594V47.5691ZM67.7106 47.0859C67.8912 46.9834 68.0327 46.8419 68.1401 46.6564C68.2426 46.4709 68.2963 46.2659 68.2963 46.0414C68.2963 45.8168 68.2426 45.6069 68.1401 45.4263C68.0376 45.2409 67.8912 45.0993 67.7106 44.9968C67.53 44.8943 67.325 44.8455 67.0955 44.8455C66.8661 44.8455 66.666 44.8943 66.4805 44.9968C66.2999 45.0993 66.1535 45.2409 66.051 45.4263C65.9485 45.6118 65.8948 45.8168 65.8948 46.0414C65.8948 46.2659 65.9485 46.4758 66.051 46.6564C66.1535 46.8419 66.295 46.9834 66.4805 47.0859C66.6611 47.1884 66.8661 47.2372 67.0955 47.2372C67.325 47.2372 67.5251 47.1884 67.7106 47.0859Z" fill="white"/>
<path d="M73.9825 47.7507V45.4908L72.8599 47.3603H72.5768L71.459 45.5201V47.7507H70.8586V44.3438H71.3809L72.7281 46.5988L74.0606 44.3438H74.578L74.5878 47.7507H73.9825Z" fill="white"/>
<path d="M79.7761 44.3389V47.7459H79.1514V44.8758H77.3844V47.7459H76.7596V44.3389H79.7713H79.7761Z" fill="white"/>
<path d="M84.2132 46.96H82.5097L82.1729 47.7507H81.5188L83.0515 44.3438H83.6762L85.2138 47.7507H84.5499L84.2083 46.96H84.2132ZM84.0033 46.4621L83.359 44.9734L82.7195 46.4621H83.9984H84.0033Z" fill="white"/>
<path d="M89.9828 44.3389V47.7459H89.3483V46.2864H87.5862V47.7459H86.9517V44.3389H87.5862V45.7446H89.3483V44.3389H89.9828Z" fill="white"/>
<path d="M92.1592 44.3389H92.784V46.7599L94.6144 44.3389H95.205V47.7459H94.5802V45.3297L92.7498 47.7459H92.1592V44.3389Z" fill="white"/>
<path d="M99.9793 44.3389V47.7459H99.3546V46.7989H98.4467L97.8121 47.7459H97.1434L97.8756 46.6964C97.6364 46.6086 97.4558 46.4719 97.3289 46.2815C97.202 46.0912 97.1385 45.8618 97.1385 45.5933C97.1385 45.3248 97.1971 45.1101 97.3143 44.9197C97.4314 44.7294 97.5974 44.5878 97.8121 44.4902C98.0269 44.3926 98.2758 44.3437 98.5687 44.3437H99.9842L99.9793 44.3389ZM97.9879 45.0564C97.8512 45.1784 97.7829 45.3541 97.7829 45.5835C97.7829 45.8129 97.8512 45.9789 97.983 46.1009C98.1148 46.223 98.31 46.2815 98.5638 46.2815H99.3643V44.8758H98.5882C98.3295 44.8758 98.1294 44.9344 97.9927 45.0564H97.9879Z" fill="white"/>
</svg>
