<svg width="119" height="48" viewBox="0 0 119 48" fill="none" xmlns="http://www.w3.org/2000/svg">
<path fill-rule="evenodd" clip-rule="evenodd" d="M82.1007 10.5193H69.5486V46.8811H56.4913V10.5193H43.9222V0.00537109H82.1007V10.5193Z" fill="#E21F26"/>
<path d="M106.598 18.7514C110.481 19.5576 113.461 21.1528 115.539 23.5372C117.617 25.9273 118.656 28.8169 118.656 32.2118C118.656 34.9822 117.906 37.5483 116.413 39.9156C114.92 42.2829 112.638 44.1904 109.584 45.6438C106.524 47.0971 102.743 47.8181 98.2295 47.8181C94.9254 47.8181 91.6554 47.415 88.4195 46.6146C85.1836 45.8084 82.3791 44.673 80.0117 43.197L84.8316 33.2166C86.6596 34.4656 88.7261 35.425 91.0253 36.0949C93.3245 36.7648 95.5897 37.0998 97.8207 37.0998C100.052 37.0998 101.908 36.674 103.248 35.8281C104.588 34.9822 105.258 33.773 105.258 32.2118C105.258 29.1746 102.868 27.6588 98.0932 27.6588H92.5354V19.2851L100.659 10.514H85.3084V0H116.311V8.30558L106.598 18.7514Z" fill="#E21F26"/>
<path d="M29.0877 40.5005H22.7067V46.8815H29.0877V40.5005Z" fill="#F8B916"/>
<path d="M21.5489 40.5005H15.1678V46.8815H21.5489V40.5005Z" fill="#F8B916"/>
<path d="M14.0153 40.5005H7.63428V46.8815H14.0153V40.5005Z" fill="#F8B916"/>
<path d="M36.5417 25.5923H30.1606V31.9733H36.5417V25.5923Z" fill="#A42381"/>
<path d="M36.5417 33.0464H30.1606V39.4274H36.5417V33.0464Z" fill="#A42381"/>
<path d="M36.5417 40.5005H30.1606V46.8815H36.5417V40.5005Z" fill="#A42381"/>
<path d="M29.0823 33.0464H22.7013V39.4274H29.0823V33.0464Z" fill="#A42381"/>
<path d="M43.9222 18.0527H37.5411V24.4338H43.9222V18.0527Z" fill="#179547"/>
<path d="M43.9222 40.5005H37.5411V46.8815H43.9222V40.5005Z" fill="#179547"/>
<path d="M43.9222 25.5923H37.5411V31.9733H43.9222V25.5923Z" fill="#179547"/>
<path d="M43.9222 33.0464H37.5411V39.4274H43.9222V33.0464Z" fill="#179547"/>
<path d="M29.0877 10.52H22.7067V16.9011H29.0877V10.52Z" fill="#E21F26"/>
<path d="M21.5489 10.52H15.1678V16.9011H21.5489V10.52Z" fill="#E21F26"/>
<path d="M21.5489 18.0527H15.1678V24.4338H21.5489V18.0527Z" fill="#E21F26"/>
<path d="M14.0153 18.0527H7.63428V24.4338H14.0153V18.0527Z" fill="#E21F26"/>
<path d="M6.47577 33.0464H0.0947266V39.4274H6.47577V33.0464Z" fill="#00519A"/>
<path d="M6.47577 40.5005H0.0947266V46.8815H6.47577V40.5005Z" fill="#00519A"/>
</svg>
