<svg width="221" height="56" viewBox="0 0 221 56" fill="none" xmlns="http://www.w3.org/2000/svg">
<path d="M8.4361 46.806L12.8548 55.8367L17.2735 46.806L12.8548 42.5806L8.4361 46.806Z" fill="#ED5338"/>
<path d="M12.8548 4.42041C11.9367 4.92123 0.000427246 11.1815 0.000427246 21.2814C0.000427246 29.8788 7.01192 42.9836 7.01192 42.9836L12.8548 37.1407L18.6978 42.9836C18.6978 42.9836 25.7093 29.8788 25.7093 21.2814C25.7093 11.1815 13.773 4.83776 12.8548 4.42041ZM16.6945 33.2176L12.8548 29.378L9.0152 33.2176C8.84826 32.7168 6.2607 25.7053 6.2607 21.1145C6.2607 14.9377 12.4375 11.5154 12.8548 11.265C13.3557 11.5154 19.449 14.9377 19.449 21.1145C19.449 25.7053 16.8614 32.7168 16.6945 33.2176Z" fill="#C59368"/>
<path d="M25.7262 6.39186e-05L21.3117 4.41455L25.7262 8.82904L30.1407 4.41455L25.7262 6.39186e-05Z" fill="#C59368"/>
<path d="M16.0685 20.8886C16.0685 22.4507 14.7295 23.7005 13.0557 23.7005C11.382 23.7005 10.043 22.4507 10.043 20.8886C10.043 19.3264 11.382 18.0767 13.0557 18.0767C14.7295 18.0767 16.0685 19.3264 16.0685 20.8886Z" fill="#C59368"/>
<path d="M122.731 10.5774C121.832 10.8797 120.233 11.2829 118.734 11.5852C117.336 11.8875 115.437 12.1899 113.539 12.7946C110.541 13.9031 108.943 17.0273 108.743 20.9577C108.743 21.1593 108.643 21.4616 108.543 21.764H108.743C109.942 19.2445 113.139 17.5312 116.137 17.5312C121.432 17.5312 124.929 21.1593 124.929 26.6014C124.929 31.3381 121.232 36.1755 115.237 36.1755C108.643 36.1755 105.246 30.7334 105.246 23.7796C105.246 16.1203 107.344 11.9883 112.14 9.97272C113.539 9.36804 114.738 9.16648 115.837 8.96492C118.435 8.46102 120.033 8.0579 121.732 7.65479L122.731 10.5774ZM115.138 33.0513C118.535 33.0513 121.232 30.4311 121.232 26.803C121.232 22.8726 118.934 20.5546 115.237 20.5546C112.74 20.5546 109.742 22.5702 108.843 25.0897C108.743 29.3225 111.141 33.0513 115.138 33.0513Z" fill="#562212"/>
<path d="M130.497 35.3719H127.339V17.2954H130.891V29.0801C130.891 29.4796 130.793 29.8791 130.694 30.1787C130.793 30.1787 130.891 30.1787 130.891 30.1787L141.054 17.2954H144.211V35.3719H140.659V23.5872C140.659 23.1878 140.758 22.6884 140.856 22.3888H140.659L130.497 35.3719Z" fill="#562212"/>
<path d="M146.621 33.6771L148.027 31.0795C149.433 32.2784 151.743 33.0776 153.651 33.0776C156.362 33.0776 158.17 31.8788 158.17 30.0805C158.17 28.5819 157.065 27.8826 154.856 27.8826H151.743V24.9854H154.655C156.463 24.9854 157.567 23.9863 157.567 22.4877C157.567 20.8893 156.262 19.8902 153.952 19.8902C152.245 19.8902 150.136 20.4896 148.529 21.7884L147.123 19.1909C149.333 17.4925 151.944 16.8931 154.454 16.8931C158.772 16.8931 161.283 18.7913 161.283 21.8883C161.283 23.9863 160.279 25.385 158.07 26.1842V26.2841C160.48 26.5838 161.886 28.2822 161.886 30.58C161.886 33.8769 158.572 36.1747 154.153 36.1747C150.939 36.0748 148.228 35.0757 146.621 33.6771Z" fill="#562212"/>
<path d="M177.573 35.3719V27.582H167.89V35.3719H164.296V17.2954H167.89V24.7857H177.573V17.2954H181.167V35.3719H177.573Z" fill="#562212"/>
<path d="M201.152 27.739C201.152 27.3373 201.252 27.036 201.252 26.6343C201.252 21.1109 198.541 16.8931 192.415 16.8931C187.092 16.8931 183.577 21.1109 183.577 26.6343C183.577 32.0573 187.092 36.1747 193.419 36.1747C196.532 36.1747 199.143 35.2709 200.951 33.6641L199.545 31.053C198.139 32.0573 196.03 33.0615 193.52 33.0615C189.503 33.0615 187.594 30.9526 187.293 27.739H201.152ZM192.515 19.9058C195.829 19.9058 197.336 22.1152 197.637 24.9271H187.293C187.795 22.1152 189.804 19.9058 192.515 19.9058Z" fill="#562212"/>
<path d="M213.233 20.0397C215.009 20.0397 216.883 20.5314 218.955 21.8097C218.955 21.8097 219.843 20.1381 220.435 19.1547C218.265 17.6797 215.798 16.8931 213.233 16.8931C207.51 16.8931 203.662 20.9247 203.662 26.333C203.662 31.643 207.51 35.773 213.331 35.773C216.193 35.773 218.659 34.9863 220.534 33.413L219.153 30.8563C217.771 31.8397 215.798 32.6263 213.627 32.6263C209.977 32.6263 207.313 29.873 207.313 26.038C207.116 22.9897 209.286 20.0397 213.233 20.0397Z" fill="#562212"/>
<path d="M93.9367 9.6626C93.9367 10.9681 93.3385 11.6711 92.3416 11.6711C91.3447 11.6711 90.7465 10.8677 90.7465 9.6626H85.5626C85.6623 13.4788 87.9552 16.0898 92.4413 16.0898C96.6284 16.0898 99.021 13.3783 99.2204 9.6626H93.9367Z" fill="#562212"/>
<path d="M82.7507 35.3719V17.2954H88.7783C88.7783 17.2954 88.7783 25.0853 88.7783 25.6845C88.7783 26.2837 88.6795 26.9828 88.6795 26.9828H88.976L95.4977 17.2954H101.229V35.3719H95.2012V26.883C95.2012 26.2837 95.3 25.6845 95.3 25.6845H95.0036L88.4819 35.3719H82.7507Z" fill="#562212"/>
<path d="M70.2979 16.8931C76.1226 16.8931 80.3405 20.9672 80.3405 26.333C80.3405 31.6989 76.0222 35.773 70.2979 35.773C64.5737 35.773 60.2554 31.6989 60.2554 26.333C60.2554 20.9672 64.5737 16.8931 70.2979 16.8931ZM70.2979 30.2084C72.5073 30.2084 74.0137 28.5191 74.0137 26.333C74.0137 24.1469 72.5073 22.4577 70.2979 22.4577C68.189 22.4577 66.5822 24.1469 66.5822 26.333C66.6826 28.4198 68.189 30.2084 70.2979 30.2084Z" fill="#562212"/>
<path d="M52.9704 17.2954C52.9704 17.2954 47.8966 23.8868 47.6976 24.0866C47.4986 24.3862 47.3991 24.5859 47.3991 24.5859H47.1007C47.1007 24.5859 47.0012 24.3862 46.8022 24.0866C46.4043 23.6871 41.231 17.2954 41.231 17.2954H36.5551V35.3719H42.3253V27.7818C42.3253 26.9828 42.2258 26.4835 42.2258 26.4835H42.5243L47.2002 31.8765H47.4986L51.876 26.4835H52.1745C52.1745 26.4835 52.075 26.9828 52.075 27.7818V35.3719H57.8452V17.2954H52.9704Z" fill="#562212"/>
<path d="M40.9738 51.4186H40.3818L40.2374 49.9559H36.5551V44.188H37.4216V49.2108H39.4143V44.188H40.2807V49.2108H40.9738V51.4186Z" fill="#562212"/>
<path d="M45.2625 49.6895C45.0747 49.855 44.829 49.9929 44.5256 50.0756C44.2222 50.1721 43.9187 50.2135 43.5864 50.2135C43.2107 50.2135 42.8783 50.1446 42.6038 50.0067C42.3293 49.8688 42.0981 49.662 41.9102 49.4C41.7368 49.138 41.5923 48.8209 41.5056 48.4486C41.4189 48.0763 41.3756 47.6627 41.3756 47.2076C41.3756 46.2287 41.5634 45.4703 41.9391 44.9601C42.3148 44.45 42.8494 44.188 43.543 44.188C43.7742 44.188 43.991 44.2156 44.2077 44.2707C44.4245 44.3259 44.6268 44.4362 44.8001 44.6016C44.9735 44.7671 45.118 44.9877 45.2336 45.2773C45.3348 45.5668 45.3926 45.9529 45.3926 46.4217C45.3926 46.5596 45.3926 46.6975 45.3781 46.8491C45.3781 47.0008 45.3492 47.1525 45.3348 47.3179H42.2715C42.2715 47.6489 42.3004 47.9522 42.3582 48.2142C42.416 48.49 42.5027 48.7106 42.6183 48.9036C42.7338 49.0966 42.8928 49.2345 43.0806 49.3448C43.2685 49.4551 43.4997 49.4965 43.7887 49.4965C44.0054 49.4965 44.2222 49.4551 44.4389 49.3862C44.6557 49.3172 44.8146 49.2207 44.9302 49.1104L45.2481 49.7171L45.2625 49.6895ZM44.5834 46.6009C44.5979 46.0218 44.5112 45.6082 44.3233 45.3324C44.1355 45.0567 43.8898 44.9326 43.5575 44.9326C43.1818 44.9326 42.8928 45.0704 42.676 45.3324C42.4593 45.5944 42.3293 46.0218 42.2859 46.6009H44.569H44.5834Z" fill="#562212"/>
<path d="M49.3913 47.5323H47.4193V50.2135H46.5977V44.188H47.4193V46.7395H49.3913V44.188H50.213V50.2135H49.3913V47.5323Z" fill="#562212"/>
<path d="M55.0334 44.9664H53.4721V50.2135H52.5626V44.9664H51.0164V44.188H55.0334V44.9664Z" fill="#562212"/>
<path d="M55.8368 44.33H56.445L56.5723 44.9691H56.6147C56.9117 44.4436 57.3644 44.188 57.9867 44.188C58.6091 44.188 59.0758 44.4152 59.387 44.8839C59.6982 45.3525 59.8538 46.1194 59.8538 47.1703C59.8538 47.6674 59.7972 48.1218 59.6982 48.5195C59.5992 48.9171 59.4436 49.2579 59.2597 49.542C59.0758 49.826 58.8354 50.039 58.5666 50.181C58.2979 50.3231 58.0009 50.3941 57.6614 50.3941C57.4351 50.3941 57.2512 50.3941 57.1239 50.3515C56.9966 50.3088 56.841 50.2662 56.6854 50.181V52.6237H55.8368V44.3158V44.33ZM56.6854 49.3289C56.7986 49.4284 56.9259 49.4994 57.0532 49.5562C57.1946 49.613 57.3785 49.6414 57.6048 49.6414C58.0291 49.6414 58.3545 49.4284 58.5949 49.0023C58.8354 48.5763 58.9627 47.9656 58.9627 47.1703C58.9627 46.8437 58.9485 46.5454 58.8919 46.2756C58.8495 46.0058 58.7788 45.7786 58.6798 45.5797C58.5808 45.3809 58.4676 45.2389 58.312 45.1253C58.1706 45.0117 57.9867 44.9691 57.7745 44.9691C57.1946 44.9691 56.8269 45.3241 56.6571 46.02V49.3289H56.6854Z" fill="#562212"/>
<path d="M63.0674 47.2007C63.0674 46.169 63.2421 45.4123 63.5914 44.9171C63.9407 44.4356 64.4378 44.188 65.0826 44.188C65.7678 44.188 66.2783 44.4356 66.6008 44.9309C66.9232 45.4261 67.0844 46.1827 67.0844 47.2007C67.0844 48.2187 66.9098 49.0029 66.5605 49.4844C66.2112 49.9659 65.7141 50.2135 65.0826 50.2135C64.3975 50.2135 63.8869 49.9659 63.5645 49.4706C63.2421 48.9754 63.0808 48.2187 63.0808 47.2007M63.9272 47.2007C63.9272 47.5447 63.9407 47.8473 63.9944 48.1225C64.0347 48.3976 64.1019 48.6315 64.1959 48.8378C64.29 49.0304 64.4109 49.1955 64.5587 49.3055C64.7065 49.4156 64.8945 49.4706 65.0961 49.4706C65.4857 49.4706 65.7812 49.2918 65.9693 48.9341C66.1574 48.5764 66.2649 47.9986 66.2649 47.2007C66.2649 46.8706 66.2515 46.5679 66.1977 46.2928C66.1574 46.0176 66.0902 45.77 65.9962 45.5774C65.9022 45.3848 65.7812 45.2198 65.6335 45.1097C65.4857 44.9996 65.2976 44.9446 65.0961 44.9446C64.7199 44.9446 64.4243 45.1235 64.2228 45.4811C64.0213 45.8388 63.9272 46.4166 63.9272 47.2007Z" fill="#562212"/>
<path d="M69.5125 47.5035H69.0959V50.2135H68.2895V44.188H69.0959V46.9124L69.4857 46.7395L70.8565 44.188H71.7167L70.3727 46.6097L69.9829 47.0133L70.4668 47.489L71.9048 50.2135H70.9372L69.5125 47.5035Z" fill="#562212"/>
<path d="M72.635 44.6354C72.8739 44.4956 73.1726 44.3837 73.5161 44.2998C73.8595 44.2299 74.2179 44.188 74.6062 44.188C74.9646 44.188 75.2334 44.2439 75.4424 44.3278C75.6515 44.4257 75.8158 44.5655 75.9352 44.7332C76.0547 44.901 76.1294 45.0967 76.1742 45.3064C76.219 45.5161 76.2339 45.7398 76.2339 45.9775C76.2339 46.4388 76.2339 46.9002 76.204 47.3475C76.1891 47.7949 76.1742 48.2143 76.1742 48.6058C76.1742 48.8993 76.1742 49.179 76.204 49.4306C76.2339 49.6822 76.2638 49.9199 76.3235 50.1436H75.6216L75.3976 49.4586H75.3528C75.2334 49.6543 75.0542 49.836 74.8152 49.9898C74.5763 50.1436 74.2478 50.2135 73.8446 50.2135C73.3966 50.2135 73.0382 50.0597 72.7395 49.7801C72.4558 49.4865 72.3065 49.0811 72.3065 48.5638C72.3065 48.2283 72.3662 47.9487 72.4857 47.725C72.6052 47.5013 72.7694 47.3196 72.9934 47.1798C73.2174 47.04 73.4713 46.9421 73.7699 46.8862C74.0686 46.8303 74.4121 46.8023 74.7854 46.8023H75.0392C75.1288 46.8023 75.2035 46.8023 75.2931 46.8023C75.323 46.5646 75.323 46.341 75.323 46.1592C75.323 45.7118 75.2483 45.4043 75.1139 45.2225C74.9795 45.0408 74.7107 44.9569 74.3523 44.9569C74.1134 44.9569 73.8745 44.9849 73.5907 45.0548C73.3219 45.1247 73.0979 45.2086 72.9038 45.3064L72.6052 44.6354H72.635ZM75.323 47.4594C75.2334 47.4594 75.1587 47.4594 75.0691 47.4454C74.9795 47.4454 74.9048 47.4454 74.8152 47.4454C74.6211 47.4454 74.427 47.4594 74.2329 47.4873C74.0387 47.5153 73.8745 47.5712 73.7251 47.6551C73.5758 47.739 73.4563 47.8368 73.3667 47.9767C73.2771 48.1165 73.2323 48.2702 73.2323 48.4799C73.2323 48.7875 73.307 49.0391 73.4713 49.2069C73.6355 49.3747 73.8446 49.4586 74.0985 49.4586C74.4419 49.4586 74.7107 49.3747 74.9048 49.2209C75.099 49.0671 75.2334 48.8993 75.308 48.7036V47.4594H75.323Z" fill="#562212"/>
<path d="M78.012 47.4823V46.7784H78.702C78.822 46.7784 78.927 46.7502 79.0471 46.708C79.1671 46.6517 79.2571 46.5954 79.3471 46.4968C79.4371 46.4124 79.5121 46.3138 79.5571 46.2012C79.6171 46.0886 79.6321 45.9619 79.6321 45.8351C79.6321 45.5254 79.5421 45.3002 79.3771 45.1594C79.2121 45.0186 78.942 44.9482 78.597 44.9482C78.342 44.9482 78.102 44.9904 77.892 45.0608C77.6819 45.1312 77.5169 45.2016 77.3969 45.2861L77.1269 44.6103C77.3369 44.4836 77.5769 44.3851 77.862 44.3006C78.147 44.2302 78.462 44.188 78.822 44.188C79.3771 44.188 79.7971 44.3147 80.0971 44.5399C80.3972 44.7793 80.5472 45.1312 80.5472 45.6099C80.5472 45.9055 80.4722 46.1871 80.3072 46.4264C80.1421 46.6798 79.9321 46.8488 79.6621 46.9614V47.0036C80.0521 47.0881 80.3222 47.2571 80.4872 47.4964C80.6522 47.7357 80.7422 48.0595 80.7422 48.4678C80.7422 48.9605 80.5622 49.3829 80.2172 49.7067C79.8721 50.0446 79.3321 50.2135 78.597 50.2135C78.267 50.2135 77.982 50.1853 77.7569 50.129C77.5319 50.0727 77.3219 49.9882 77.1419 49.9038L77.3819 49.1717C77.5469 49.2702 77.7269 49.3406 77.952 49.3829C78.177 49.4251 78.402 49.4533 78.627 49.4533C79.0321 49.4533 79.3471 49.3688 79.5421 49.1858C79.7521 49.0028 79.8571 48.7353 79.8571 48.3974C79.8571 48.1158 79.7671 47.8906 79.5721 47.7216C79.3771 47.5527 79.0621 47.4682 78.612 47.4682H78.042L78.012 47.4823Z" fill="#562212"/>
<path d="M81.8413 44.6354C82.0563 44.4956 82.3251 44.3837 82.6342 44.2998C82.9434 44.2299 83.2659 44.188 83.6154 44.188C83.9379 44.188 84.1798 44.2439 84.368 44.3278C84.5561 44.4257 84.704 44.5655 84.8115 44.7332C84.919 44.901 84.9862 45.0967 85.0265 45.3064C85.0669 45.5161 85.0803 45.7398 85.0803 45.9775C85.0803 46.4388 85.0803 46.9002 85.0534 47.3475C85.04 47.7949 85.0265 48.2143 85.0265 48.6058C85.0265 48.8993 85.0265 49.179 85.0534 49.4306C85.0803 49.6822 85.1072 49.9199 85.1609 50.1436H84.5293L84.3277 49.4586H84.2873C84.1798 49.6543 84.0185 49.836 83.8035 49.9898C83.5885 50.1436 83.2928 50.2135 82.9299 50.2135C82.5267 50.2135 82.2042 50.0597 81.9354 49.7801C81.68 49.4865 81.5456 49.0811 81.5456 48.5638C81.5456 48.2283 81.5994 47.9487 81.7069 47.725C81.8144 47.5013 81.9623 47.3196 82.1639 47.1798C82.3655 47.04 82.5939 46.9421 82.8627 46.8862C83.1315 46.8303 83.4406 46.8023 83.7766 46.8023H84.0051C84.0857 46.8023 84.1529 46.8023 84.2336 46.8023C84.2605 46.5646 84.2605 46.341 84.2605 46.1592C84.2605 45.7118 84.1933 45.4043 84.0723 45.2225C83.9513 45.0408 83.7094 44.9569 83.3869 44.9569C83.1718 44.9569 82.9568 44.9849 82.7014 45.0548C82.4595 45.1247 82.2579 45.2086 82.0832 45.3064L81.8144 44.6354H81.8413ZM84.2605 47.4594C84.1798 47.4594 84.1126 47.4594 84.032 47.4454C83.9513 47.4454 83.8841 47.4454 83.8035 47.4454C83.6288 47.4454 83.4541 47.4594 83.2794 47.4873C83.1046 47.5153 82.9568 47.5712 82.8224 47.6551C82.688 47.739 82.5805 47.8368 82.4998 47.9767C82.4192 48.1165 82.3789 48.2702 82.3789 48.4799C82.3789 48.7875 82.4461 49.0391 82.5939 49.2069C82.7418 49.3747 82.9299 49.4586 83.1584 49.4586C83.4675 49.4586 83.7094 49.3747 83.8841 49.2209C84.0589 49.0671 84.1798 48.8993 84.247 48.7036V47.4594H84.2605Z" fill="#562212"/>
<path d="M89.5508 47.5323H87.5862V50.2135H86.7677V44.188H87.5862V46.7395H89.5508V44.188H90.383V50.2135H89.5508V47.5323Z" fill="#562212"/>
<path d="M94.7057 46.7395L94.7807 45.8313H94.7357L94.2861 46.8404L92.1726 50.2135H91.5881V44.188H92.4874V47.7629L92.4125 48.6422H92.4574L92.8771 47.662L95.0205 44.188H95.6051V50.2135H94.7057V46.7395Z" fill="#562212"/>
<path d="M99.5078 47.778L98.7405 47.9187L97.4767 50.2135H96.4085L97.582 48.1862L97.9882 47.7639C97.6422 47.7076 97.3563 47.5386 97.1156 47.2711C96.8749 47.0036 96.7545 46.6376 96.7545 46.1871C96.7545 45.4832 96.9501 44.9764 97.3563 44.6526C97.7626 44.3429 98.3192 44.188 99.0263 44.188C99.2821 44.188 99.5379 44.2021 99.7635 44.2443C99.9892 44.2865 100.215 44.3147 100.426 44.371V50.2135H99.5228V47.778H99.5078ZM99.5078 47.2289V45.0468C99.4175 45.0045 99.3272 44.9764 99.2219 44.9623C99.1166 44.9482 99.0113 44.9341 98.9361 44.9341C98.5298 44.9341 98.2289 45.0327 98.0183 45.2298C97.8077 45.4269 97.7024 45.7225 97.7024 46.1308C97.7024 46.4968 97.8227 46.7643 98.0635 46.9755C98.3042 47.1726 98.6352 47.2711 99.0263 47.2571L99.5228 47.2289H99.5078Z" fill="#562212"/>
<path d="M105.36 48.077L105.606 49.2351H105.663L105.851 48.077L106.775 44.2166H107.656L106.227 49.5783C106.111 50.0072 105.995 50.4075 105.88 50.7793C105.764 51.151 105.649 51.4799 105.519 51.7515C105.389 52.0232 105.23 52.2377 105.071 52.3949C104.912 52.5522 104.71 52.6237 104.494 52.6237C104.277 52.6237 104.075 52.5951 103.902 52.5093L104.046 51.6943C104.162 51.7372 104.277 51.7372 104.378 51.7229C104.494 51.6943 104.595 51.6371 104.696 51.5228C104.797 51.4084 104.884 51.2511 104.97 51.0223C105.057 50.8079 105.129 50.5219 105.187 50.1645L103.237 44.188H104.234L105.375 48.0484L105.36 48.077Z" fill="#562212"/>
<path d="M111.271 49.7861C111.069 49.9377 110.838 50.0342 110.577 50.1032C110.317 50.1721 110.057 50.2135 109.767 50.2135C109.377 50.2135 109.059 50.1446 108.784 50.0067C108.524 49.8688 108.307 49.662 108.133 49.4C107.96 49.138 107.844 48.8209 107.772 48.4486C107.7 48.0763 107.656 47.6627 107.656 47.2076C107.656 46.2287 107.844 45.4703 108.206 44.9601C108.567 44.45 109.102 44.188 109.782 44.188C110.1 44.188 110.36 44.2156 110.592 44.2707C110.823 44.3259 111.011 44.3948 111.17 44.4775L110.924 45.2083C110.606 45.0291 110.245 44.9464 109.869 44.9464C109.435 44.9464 109.102 45.1256 108.885 45.4979C108.668 45.8564 108.553 46.4355 108.553 47.2214C108.553 47.5386 108.582 47.8281 108.625 48.1039C108.668 48.3796 108.755 48.6278 108.871 48.8209C108.987 49.0277 109.131 49.1794 109.305 49.3035C109.478 49.4276 109.695 49.4827 109.97 49.4827C110.172 49.4827 110.375 49.4551 110.548 49.3724C110.736 49.3035 110.881 49.2207 110.997 49.1242L111.257 49.7861H111.271Z" fill="#562212"/>
<path d="M115.208 44.9609H113.845C113.815 45.6335 113.785 46.2919 113.74 46.936C113.695 47.5657 113.62 48.1239 113.516 48.6105C113.411 49.0971 113.261 49.4836 113.066 49.7841C112.871 50.0704 112.617 50.2135 112.302 50.2135C112.152 50.2135 112.033 50.2135 111.943 50.1849C111.838 50.1849 111.748 50.1419 111.673 50.099L111.808 49.3547C111.988 49.3977 112.137 49.3977 112.272 49.3261C112.407 49.2546 112.527 49.0542 112.632 48.7107C112.737 48.3672 112.812 47.8376 112.871 47.122C112.931 46.4064 112.976 45.4332 113.006 44.188H116.092V50.1706H115.193V44.9609H115.208Z" fill="#562212"/>
<path d="M119.025 48.077L119.27 49.2351H119.328L119.515 48.077L120.436 44.2166H121.314L119.889 49.5783C119.774 50.0072 119.659 50.4075 119.544 50.7793C119.428 51.151 119.313 51.4799 119.169 51.7515C119.04 52.0232 118.896 52.2377 118.723 52.3949C118.565 52.5522 118.363 52.6237 118.147 52.6237C117.932 52.6237 117.73 52.5951 117.557 52.5093L117.701 51.6943C117.816 51.7372 117.932 51.7372 118.032 51.7229C118.147 51.6943 118.248 51.6371 118.349 51.5228C118.45 51.4084 118.536 51.2511 118.622 51.0223C118.709 50.8079 118.781 50.5219 118.838 50.1645L116.895 44.188H117.888L119.025 48.0484V48.077Z" fill="#562212"/>
<path d="M124.929 44.9664H122.979V50.2135H122.117V44.188H124.929V44.9664Z" fill="#562212"/>
</svg>
