<svg display="none" xmlns="http://www.w3.org/2000/svg">

	<symbol id='location' viewBox="0 0 13 19">
		<path fill-rule="evenodd" clip-rule="evenodd"
			d="M6.43548 19C6.43548 19 12.871 9.9897 12.871 6.43548C12.871 2.88126 9.9897 0 6.43548 0C2.88126 0 0 2.88126 0 6.43548C0 9.9897 6.43548 19 6.43548 19ZM6.43547 9.19344C7.9587 9.19344 9.19353 7.95861 9.19353 6.43537C9.19353 4.91213 7.9587 3.67731 6.43547 3.67731C4.91223 3.67731 3.6774 4.91213 3.6774 6.43537C3.6774 7.95861 4.91223 9.19344 6.43547 9.19344Z" />
	</symbol>

	<symbol id="vk" viewBox="0 0 57 33" fill="none" xmlns="http://www.w3.org/2000/svg">
		<path
			d="M47.2998 18.9231C46.3782 17.7681 46.6419 17.2543 47.2998 16.2219C47.3116 16.2101 54.919 5.77736 55.7028 2.23929L55.7076 2.23693C56.0971 0.947571 55.7076 0 53.8241 0H47.5919C46.0053 0 45.2738 0.813214 44.8819 1.72307C44.8819 1.72307 41.7088 9.26121 37.2199 14.1476C35.7711 15.5595 35.1013 16.0121 34.3104 16.0121C33.9209 16.0121 33.3153 15.5595 33.3153 14.2701V2.23693C33.3153 0.690643 32.8711 0 31.5577 0H21.7581C20.763 0 20.1716 0.721286 20.1716 1.39307C20.1716 2.85921 22.416 3.19629 22.6488 7.32129V16.2714C22.6488 18.2325 22.2901 18.5931 21.4945 18.5931C19.3759 18.5931 14.2339 11.0244 11.1866 2.36186C10.5715 0.681214 9.9706 0.00235697 8.37216 0.00235697H2.13757C0.358637 0.00235697 0 0.815571 0 1.72543C0 3.333 2.11857 11.3261 9.85184 21.8861C15.0058 29.0942 22.264 33 28.8668 33C32.8355 33 33.32 32.1326 33.32 30.6405C33.32 23.7529 32.9614 23.1024 34.9493 23.1024C35.8709 23.1024 37.4574 23.5549 41.1625 27.0317C45.3973 31.1544 46.0932 33 48.4636 33H54.6958C56.4723 33 57.3725 32.1326 56.8547 30.4213C55.6696 26.8219 47.6608 19.4181 47.2998 18.9231Z" />
	</symbol>

	<symbol id="tg" viewBox="0 0 48 42">
		<path
			d="M45.8891 18.0724C44.42 27.827 42.8236 38.4905 42.8236 38.4905C42.8236 38.4905 42.5773 41.4826 40.4926 42C38.2591 41.9637 36.1005 41.1405 34.3573 39.6603C33.8648 39.2689 25.1523 33.4197 21.9637 30.5581C21.6385 30.3255 21.3742 30.0093 21.1955 29.6391C21.0168 29.2689 20.9295 28.8568 20.9418 28.4412C20.9541 28.0256 21.0656 27.62 21.2658 27.2624C21.466 26.9048 21.7485 26.6068 22.0868 26.3962C26.4573 22.1478 30.7521 17.8126 34.9687 13.393C36.4421 11.8318 37.9154 8.19179 31.7801 12.6147C23.0676 18.9858 14.4782 24.9654 14.4782 24.9654C13.5936 25.3883 12.6375 25.6179 11.6673 25.6403C10.697 25.6627 9.73241 25.4776 8.83121 25.0959C5.15005 23.9261 0.857481 22.3648 0.857481 22.3648C0.857481 22.3648 -2.08915 20.4166 2.9422 18.3154C2.9422 18.3154 24.1715 9.08266 31.5338 5.83412C34.3573 4.5338 43.9275 0.371893 43.9275 0.371893C43.9275 0.371893 48.3475 -1.45035 47.9781 2.97252C47.8549 4.81276 46.8742 11.1839 45.8891 18.0724Z" />
	</symbol>

	<symbol id="burger" viewBox="0 0 47 45">
		<path d="M0 0H47V9H0V0Z"/>
		<path d="M0 18H47V27H0V18Z"/>
		<path d="M0 36H47V45H0V36Z"/>
	</symbol>


</svg>